<svg width="48" height="32" viewBox="0 0 48 32" fill="none" xmlns="http://www.w3.org/2000/svg">
<rect x="48" y="32" width="32" height="32" rx="16" transform="rotate(180 48 32)" fill="#FAFAFA"/>
<path d="M42.6669 16.0002L2.13328 16" stroke="#222222" stroke-width="1.6" stroke-linecap="round" stroke-linejoin="round"/>
<path d="M1.59998 16.8C1.15815 16.8 0.799976 16.4418 0.799976 16C0.799976 15.5582 1.15815 15.2 1.59998 15.2L1.59998 16.8ZM15.4666 15.2L16.2666 15.2L16.2666 16.8L15.4666 16.8L15.4666 15.2ZM1.59998 15.2L15.4666 15.2L15.4666 16.8L1.59998 16.8L1.59998 15.2Z" fill="#FAFAFA"/>
<path d="M36.0005 9.33335C36.0005 9.33335 42.6671 14.2432 42.6671 16C42.6671 17.7568 36.0004 22.6667 36.0004 22.6667" stroke="#222222" stroke-width="1.6" stroke-linecap="round" stroke-linejoin="round"/>
</svg>
