<svg width="48" height="32" viewBox="0 0 48 32" fill="none" xmlns="http://www.w3.org/2000/svg">
<rect width="32" height="32" rx="16" transform="matrix(1 0 0 -1 0 32)" fill="#FAFAFA"/>
<path d="M5.33301 16.0002L45.8666 16" stroke="#222222" stroke-width="1.6" stroke-linecap="round" stroke-linejoin="round"/>
<path d="M46.3999 16.8C46.8417 16.8 47.1999 16.4418 47.1999 16C47.1999 15.5582 46.8417 15.2 46.3999 15.2L46.3999 16.8ZM32.5332 15.2L31.7332 15.2L31.7332 16.8L32.5332 16.8L32.5332 15.2ZM46.3999 15.2L32.5332 15.2L32.5332 16.8L46.3999 16.8L46.3999 15.2Z" fill="#FAFAFA"/>
<path d="M11.9994 9.33335C11.9994 9.33335 5.33279 14.2432 5.33276 16C5.33275 17.7568 11.9994 22.6667 11.9994 22.6667" stroke="#222222" stroke-width="1.6" stroke-linecap="round" stroke-linejoin="round"/>
</svg>
