<svg width="25" height="24" viewBox="0 0 25 24" fill="none" xmlns="http://www.w3.org/2000/svg">
<path d="M9.6585 5.71223L9.25584 4.80625C8.99256 4.21388 8.86092 3.91768 8.66405 3.69101C8.41732 3.40694 8.09571 3.19794 7.73592 3.08785C7.44883 3 7.1247 3 6.47645 3C5.52815 3 5.054 3 4.65597 3.18229C4.18711 3.39702 3.76368 3.86328 3.59497 4.3506C3.45175 4.76429 3.49278 5.18943 3.57482 6.0397C4.44815 15.0902 9.41006 20.0521 18.4605 20.9254C19.3108 21.0075 19.736 21.0485 20.1496 20.9053C20.637 20.7366 21.1032 20.3131 21.318 19.8443C21.5002 19.4462 21.5002 18.9721 21.5002 18.0238C21.5002 17.3755 21.5002 17.0514 21.4124 16.7643C21.3023 16.4045 21.0933 16.0829 20.8092 15.8362C20.5826 15.6393 20.2864 15.5077 19.694 15.2444L18.788 14.8417C18.1465 14.5566 17.8257 14.4141 17.4998 14.3831C17.1878 14.3534 16.8733 14.3972 16.5813 14.5109C16.2762 14.6297 16.0066 14.8544 15.4672 15.3038C14.9304 15.7512 14.662 15.9749 14.334 16.0947C14.0432 16.2009 13.6588 16.2403 13.3526 16.1951C13.0071 16.1442 12.7426 16.0029 12.2135 15.7201C10.5675 14.8405 9.65977 13.9328 8.78011 12.2867C8.49738 11.7577 8.35602 11.4931 8.30511 11.1477C8.25998 10.8414 8.29932 10.457 8.40554 10.1663C8.52536 9.83828 8.74905 9.56986 9.19643 9.033C9.64586 8.49368 9.87058 8.22402 9.98939 7.91891C10.1031 7.62694 10.1469 7.3124 10.1172 7.00048C10.0862 6.67452 9.94362 6.35376 9.6585 5.71223Z" stroke="#424242" stroke-width="1.5" stroke-linecap="round"/>
</svg>
