<svg width="31" height="30" viewBox="0 0 31 30" fill="none" xmlns="http://www.w3.org/2000/svg">
<path d="M5.40752 21.2742L3.90307 12.2998C3.67559 10.9429 3.56187 10.2644 3.92607 9.8197C4.29028 9.375 4.95967 9.375 6.29846 9.375H24.8344C26.1732 9.375 26.8425 9.375 27.2068 9.8197C27.5709 10.2644 27.4572 10.9429 27.2298 12.2998L25.7253 21.2742C25.2267 24.2489 24.9773 25.7361 23.9593 26.6181C22.9414 27.5 21.4739 27.5 18.5392 27.5H12.5937C9.65886 27.5 8.19144 27.5 7.17347 26.6181C6.15549 25.7361 5.90617 24.2489 5.40752 21.2742Z" stroke="#424242" stroke-width="1.875"/>
<path d="M22.4414 9.375C22.4414 5.57804 19.3634 2.5 15.5664 2.5C11.7694 2.5 8.69141 5.57804 8.69141 9.375" stroke="#424242" stroke-width="1.875"/>
</svg>
