<svg width="33" height="33" viewBox="0 0 33 33" fill="none" xmlns="http://www.w3.org/2000/svg">
  <path
    d="M28.8575 20.6142L28.5303 21.5592L28.5303 21.5592L28.8575 20.6142ZM28.8575 13.0525L29.1846 13.9975H29.1846L28.8575 13.0525ZM4.80919 20.6142L5.13636 21.5592L5.13636 21.5592L4.80919 20.6142ZM4.80919 13.0525L4.48203 13.9975H4.48203L4.80919 13.0525ZM21.5404 13.5405C21.931 13.15 21.931 12.5168 21.5404 12.1263C21.1499 11.7357 20.5168 11.7357 20.1262 12.1263L21.5404 13.5405ZM12.1262 20.1263C11.7357 20.5168 11.7357 21.15 12.1262 21.5405C12.5168 21.931 13.1499 21.931 13.5404 21.5405L12.1262 20.1263ZM8.83333 27.8334C6.4401 27.8334 4.5 25.8933 4.5 23.5H2.5C2.5 26.9978 5.33553 29.8334 8.83333 29.8334V27.8334ZM29.1667 23.5C29.1667 25.8933 27.2266 27.8334 24.8333 27.8334V29.8334C28.3311 29.8334 31.1667 26.9978 31.1667 23.5H29.1667ZM24.8333 5.83337C27.2266 5.83337 29.1667 7.77347 29.1667 10.1667H31.1667C31.1667 6.6689 28.3311 3.83337 24.8333 3.83337V5.83337ZM8.83333 3.83337C5.33553 3.83337 2.5 6.6689 2.5 10.1667H4.5C4.5 7.77347 6.4401 5.83337 8.83333 5.83337V3.83337ZM29.1846 19.6692C28.0087 19.2621 27.1667 18.1448 27.1667 16.8334H25.1667C25.1667 19.0232 26.5738 20.8818 28.5303 21.5592L29.1846 19.6692ZM27.1667 16.8334C27.1667 15.522 28.0087 14.4046 29.1846 13.9975L28.5303 12.1076C26.5738 12.7849 25.1667 14.6435 25.1667 16.8334H27.1667ZM6.5 16.8334C6.5 18.1448 5.65794 19.2621 4.48203 19.6692L5.13636 21.5592C7.09282 20.8818 8.5 19.0232 8.5 16.8334H6.5ZM4.48203 13.9975C5.65794 14.4046 6.5 15.522 6.5 16.8334H8.5C8.5 14.6435 7.09282 12.7849 5.13636 12.1076L4.48203 13.9975ZM31.1667 11.5V10.1667H29.1667V11.5H31.1667ZM29.1667 22.1667V23.5H31.1667V22.1667H29.1667ZM2.5 22.1667V23.5H4.5V22.1667H2.5ZM4.5 11.5V10.1667H2.5V11.5H4.5ZM24.8333 27.8334H8.83333V29.8334H24.8333V27.8334ZM24.8333 3.83337H8.83333V5.83337H24.8333V3.83337ZM4.48203 19.6692C3.57713 19.9825 2.5 20.8301 2.5 22.1667H4.5C4.5 22.0922 4.52774 21.9945 4.63562 21.8751C4.7488 21.7498 4.92632 21.6319 5.13636 21.5592L4.48203 19.6692ZM29.1846 13.9975C30.0895 13.6842 31.1667 12.8366 31.1667 11.5H29.1667C29.1667 11.5745 29.1389 11.6723 29.031 11.7917C28.9179 11.9169 28.7403 12.0349 28.5303 12.1076L29.1846 13.9975ZM5.13636 12.1076C4.92632 12.0349 4.7488 11.9169 4.63562 11.7917C4.52774 11.6723 4.5 11.5745 4.5 11.5H2.5C2.5 12.8366 3.57713 13.6842 4.48203 13.9975L5.13636 12.1076ZM28.5303 21.5592C28.7403 21.6319 28.9179 21.7498 29.031 21.8751C29.1389 21.9945 29.1667 22.0922 29.1667 22.1667H31.1667C31.1667 20.8301 30.0895 19.9825 29.1846 19.6692L28.5303 21.5592ZM13.1667 12.8334C13.1667 13.0175 13.0174 13.1667 12.8333 13.1667V15.1667C14.122 15.1667 15.1667 14.122 15.1667 12.8334H13.1667ZM12.8333 13.1667C12.6492 13.1667 12.5 13.0175 12.5 12.8334H10.5C10.5 14.122 11.5447 15.1667 12.8333 15.1667V13.1667ZM12.5 12.8334C12.5 12.6493 12.6492 12.5 12.8333 12.5V10.5C11.5447 10.5 10.5 11.5447 10.5 12.8334H12.5ZM12.8333 12.5C13.0174 12.5 13.1667 12.6493 13.1667 12.8334H15.1667C15.1667 11.5447 14.122 10.5 12.8333 10.5V12.5ZM21.1667 20.8334C21.1667 21.0175 21.0174 21.1667 20.8333 21.1667V23.1667C22.122 23.1667 23.1667 22.122 23.1667 20.8334H21.1667ZM20.8333 21.1667C20.6492 21.1667 20.5 21.0175 20.5 20.8334H18.5C18.5 22.122 19.5447 23.1667 20.8333 23.1667V21.1667ZM20.5 20.8334C20.5 20.6493 20.6492 20.5 20.8333 20.5V18.5C19.5447 18.5 18.5 19.5447 18.5 20.8334H20.5ZM20.8333 20.5C21.0174 20.5 21.1667 20.6493 21.1667 20.8334H23.1667C23.1667 19.5447 22.122 18.5 20.8333 18.5V20.5ZM20.1262 12.1263L12.1262 20.1263L13.5404 21.5405L21.5404 13.5405L20.1262 12.1263Z"
    fill="#9E9E9E" />
</svg>