<svg width="35" height="35" viewBox="0 0 35 35" fill="none" xmlns="http://www.w3.org/2000/svg">
<path d="M0.5 17.5C0.5 8.11116 8.11116 0.5 17.5 0.5C26.8888 0.5 34.5 8.11116 34.5 17.5C34.5 26.8888 26.8888 34.5 17.5 34.5C8.11116 34.5 0.5 26.8888 0.5 17.5Z" fill="#424242"/>
<g clip-path="url(#clip0_256_1389)">
<path d="M17.5 12.5C14.7386 12.5 12.5 14.7386 12.5 17.5C12.5 19.8448 14.1144 21.8124 16.2922 22.3528V19.028H15.2612V17.5H16.2922V16.8416C16.2922 15.1398 17.0624 14.351 18.7332 14.351C19.05 14.351 19.5966 14.4132 19.8202 14.4752V15.8602C19.7022 15.8478 19.4972 15.8416 19.2426 15.8416C18.4228 15.8416 18.106 16.1522 18.106 16.9596V17.5H19.7392L19.4586 19.028H18.106V22.4634C20.5818 22.1644 22.5002 20.0564 22.5002 17.5C22.5 14.7386 20.2614 12.5 17.5 12.5Z" fill="white"/>
</g>
<defs>
<clipPath id="clip0_256_1389">
<rect width="10" height="10" fill="white" transform="translate(12.5 12.5)"/>
</clipPath>
</defs>
</svg>
