<svg width="29" height="29" viewBox="0 0 29 29" fill="none" xmlns="http://www.w3.org/2000/svg">
<g opacity="0.9" clip-path="url(#clip0_575_622)">
<path d="M14.5 11.9545V17.3764H22.0345C21.7037 19.12 20.7108 20.5964 19.2218 21.5891L23.7654 25.1146C26.4126 22.671 27.9399 19.0819 27.9399 14.8183C27.9399 13.8256 27.8509 12.871 27.6854 11.9547L14.5 11.9545Z" fill="#007BFF"/>
<path d="M6.65404 17.1647L5.62929 17.9492L2.00195 20.7746C4.30558 25.3436 9.02705 28.5 14.4997 28.5C18.2796 28.5 21.4487 27.2528 23.7651 25.1146L19.2215 21.5891C17.9742 22.4291 16.3833 22.9383 14.4997 22.9383C10.8598 22.9383 7.76712 20.4819 6.65977 17.1728L6.65404 17.1647Z" fill="#34A853"/>
<path d="M2.00171 8.2254C1.04722 10.109 0.5 12.2344 0.5 14.4999C0.5 16.7653 1.04722 18.8908 2.00171 20.7743C2.00171 20.787 6.65997 17.1598 6.65997 17.1598C6.37997 16.3198 6.21447 15.4289 6.21447 14.4997C6.21447 13.5705 6.37997 12.6797 6.65997 11.8397L2.00171 8.2254Z" fill="#FBBC05"/>
<path d="M14.5 6.07454C16.5619 6.07454 18.3946 6.78725 19.8582 8.16182L23.8673 4.15278C21.4363 1.88736 18.2801 0.5 14.5 0.5C9.02734 0.5 4.30558 3.64363 2.00195 8.22546L6.66007 11.84C7.76728 8.53089 10.86 6.07454 14.5 6.07454Z" fill="#EA4335"/>
</g>
<defs>
<clipPath id="clip0_575_622">
<rect width="28" height="28" fill="white" transform="translate(0.5 0.5)"/>
</clipPath>
</defs>
</svg>
