<svg width="31" height="30" viewBox="0 0 31 30" fill="none" xmlns="http://www.w3.org/2000/svg">
<path d="M8.78837 19.352C7.01991 20.405 2.38311 22.5552 5.20724 25.2458C6.5868 26.56 8.12327 27.5 10.055 27.5H21.0778C23.0095 27.5 24.546 26.56 25.9255 25.2458C28.7497 22.5552 24.1129 20.405 22.3444 19.352C18.1974 16.8827 12.9354 16.8827 8.78837 19.352Z" stroke="#424242" stroke-width="1.875" stroke-linecap="round" stroke-linejoin="round"/>
<path d="M21.1914 8.125C21.1914 11.2316 18.673 13.75 15.5664 13.75C12.4598 13.75 9.94141 11.2316 9.94141 8.125C9.94141 5.0184 12.4598 2.5 15.5664 2.5C18.673 2.5 21.1914 5.0184 21.1914 8.125Z" stroke="#424242" stroke-width="1.875"/>
</svg>
