<svg width="35" height="35" viewBox="0 0 35 35" fill="none" xmlns="http://www.w3.org/2000/svg">
<path d="M0.5 17.5C0.5 8.11116 8.11116 0.5 17.5 0.5C26.8888 0.5 34.5 8.11116 34.5 17.5C34.5 26.8888 26.8888 34.5 17.5 34.5C8.11116 34.5 0.5 26.8888 0.5 17.5Z" fill="#424242"/>
<g clip-path="url(#clip0_256_1391)">
<path d="M17.5 13.4004C18.8359 13.4004 18.9941 13.4062 19.5195 13.4297C20.0078 13.4512 20.2715 13.5332 20.4473 13.6016C20.6797 13.6914 20.8477 13.8008 21.0215 13.9746C21.1973 14.1504 21.3047 14.3164 21.3945 14.5488C21.4629 14.7246 21.5449 14.9902 21.5664 15.4766C21.5898 16.0039 21.5957 16.1621 21.5957 17.4961C21.5957 18.832 21.5898 18.9902 21.5664 19.5156C21.5449 20.0039 21.4629 20.2676 21.3945 20.4434C21.3047 20.6758 21.1953 20.8438 21.0215 21.0176C20.8457 21.1934 20.6797 21.3008 20.4473 21.3906C20.2715 21.459 20.0059 21.541 19.5195 21.5625C18.9922 21.5859 18.834 21.5918 17.5 21.5918C16.1641 21.5918 16.0059 21.5859 15.4805 21.5625C14.9922 21.541 14.7285 21.459 14.5527 21.3906C14.3203 21.3008 14.1523 21.1914 13.9785 21.0176C13.8027 20.8418 13.6953 20.6758 13.6055 20.4434C13.5371 20.2676 13.4551 20.002 13.4336 19.5156C13.4102 18.9883 13.4043 18.8301 13.4043 17.4961C13.4043 16.1602 13.4102 16.002 13.4336 15.4766C13.4551 14.9883 13.5371 14.7246 13.6055 14.5488C13.6953 14.3164 13.8047 14.1484 13.9785 13.9746C14.1543 13.7988 14.3203 13.6914 14.5527 13.6016C14.7285 13.5332 14.9941 13.4512 15.4805 13.4297C16.0059 13.4062 16.1641 13.4004 17.5 13.4004ZM17.5 12.5C16.1426 12.5 15.9727 12.5059 15.4395 12.5293C14.9082 12.5527 14.543 12.6387 14.2266 12.7617C13.8965 12.8906 13.6172 13.0605 13.3398 13.3398C13.0605 13.6172 12.8906 13.8965 12.7617 14.2246C12.6387 14.543 12.5527 14.9062 12.5293 15.4375C12.5059 15.9727 12.5 16.1426 12.5 17.5C12.5 18.8574 12.5059 19.0273 12.5293 19.5605C12.5527 20.0918 12.6387 20.457 12.7617 20.7734C12.8906 21.1035 13.0605 21.3828 13.3398 21.6602C13.6172 21.9375 13.8965 22.1094 14.2246 22.2363C14.543 22.3594 14.9063 22.4453 15.4375 22.4688C15.9707 22.4922 16.1406 22.498 17.498 22.498C18.8555 22.498 19.0254 22.4922 19.5586 22.4688C20.0898 22.4453 20.4551 22.3594 20.7715 22.2363C21.0996 22.1094 21.3789 21.9375 21.6563 21.6602C21.9336 21.3828 22.1055 21.1035 22.2324 20.7754C22.3555 20.457 22.4414 20.0938 22.4648 19.5625C22.4883 19.0293 22.4941 18.8594 22.4941 17.502C22.4941 16.1445 22.4883 15.9746 22.4648 15.4414C22.4414 14.9102 22.3555 14.5449 22.2324 14.2285C22.1094 13.8965 21.9395 13.6172 21.6602 13.3398C21.3828 13.0625 21.1035 12.8906 20.7754 12.7637C20.457 12.6406 20.0938 12.5547 19.5625 12.5313C19.0273 12.5059 18.8574 12.5 17.5 12.5Z" fill="white"/>
<path d="M17.5 14.9316C16.082 14.9316 14.9316 16.082 14.9316 17.5C14.9316 18.918 16.082 20.0684 17.5 20.0684C18.918 20.0684 20.0684 18.918 20.0684 17.5C20.0684 16.082 18.918 14.9316 17.5 14.9316ZM17.5 19.166C16.5801 19.166 15.834 18.4199 15.834 17.5C15.834 16.5801 16.5801 15.834 17.5 15.834C18.4199 15.834 19.166 16.5801 19.166 17.5C19.166 18.4199 18.4199 19.166 17.5 19.166Z" fill="white"/>
<path d="M20.7695 14.8301C20.7695 15.1621 20.5 15.4297 20.1699 15.4297C19.8379 15.4297 19.5703 15.1602 19.5703 14.8301C19.5703 14.498 19.8398 14.2305 20.1699 14.2305C20.5 14.2305 20.7695 14.5 20.7695 14.8301Z" fill="white"/>
</g>
<defs>
<clipPath id="clip0_256_1391">
<rect width="10" height="10" fill="white" transform="translate(12.5 12.5)"/>
</clipPath>
</defs>
</svg>
