<svg width="25" height="24" viewBox="0 0 25 24" fill="none" xmlns="http://www.w3.org/2000/svg">
<path d="M14.1177 21.367C13.6841 21.773 13.1044 22 12.5011 22C11.8978 22 11.3182 21.773 10.8845 21.367C6.91302 17.626 1.59076 13.4469 4.18627 7.37966C5.58963 4.09916 8.95834 2 12.5011 2C16.0439 2 19.4126 4.09916 20.816 7.37966C23.4082 13.4393 18.099 17.6389 14.1177 21.367Z" stroke="#424242" stroke-width="1.5"/>
<path d="M16 11C16 12.933 14.433 14.5 12.5 14.5C10.567 14.5 9 12.933 9 11C9 9.067 10.567 7.5 12.5 7.5C14.433 7.5 16 9.067 16 11Z" stroke="#424242" stroke-width="1.5"/>
</svg>
