<svg viewBox="0 602.88 1896.96 741.12" version="1.1" xmlns:xlink="http://www.w3.org/1999/xlink" xmlns="http://www.w3.org/2000/svg" style="max-height: 500px" width="1896.96" height="741.12">
  <defs>
    <clipPath id="clip_0">
      <path d="M0 1920H1920V0H0Z" transform="matrix(1,0,0,-1,0,1920)"/>
    </clipPath>
  </defs>
  <g data-name="Layer 2" id="layer_1">
</g>
  <g data-name="Layer 3" id="layer_1">
    <g clip-path="url(#clip_0)">
      <path fill="#b42525" d="M0 0H-633.397V254.671C-633.397 362.557-545.938 450.016-438.052 450.016H-197.224C-88.3 450.016 0 361.716 0 252.792Z" transform="matrix(1,0,0,-1,707.6594,1279.6758)" data-darkreader-inline-fill="" style="--darkreader-inline-fill: #a22c2c;"/>
      <path fill="#fde0e0" d="M0 0H-58.857V40.146C-58.857 50.48-50.48 58.857-40.146 58.857H-17.768C-7.955 58.857 0 50.902 0 41.089Z" transform="matrix(1,0,0,-1,419.708,729.7555)" data-darkreader-inline-fill="" style="--darkreader-inline-fill: #ffcccc;"/>
      <path fill="#fde0e0" d="M0 0C0 0-16.953 5.088-3.422 26.095 10.109 47.103 36.3 52.914 53.697 33.37 71.095 13.825 53.883-1.809 53.883-1.809Z" transform="matrix(1,0,0,-1,433.0304,728.60549)" data-darkreader-inline-fill="" style="--darkreader-inline-fill: #ffcccc;"/>
      <path fill="#fde0e0" d="M443.588 1190.771H416.721V1234.273H443.588Z" transform="matrix(1,0,0,-1,0,1920)" data-darkreader-inline-fill="" style="--darkreader-inline-fill: #ffcccc;"/>
      <path fill="#212222" d="M0 0-4.801 2.683-10.167 15.552 9.602 27.536 28.102 32.478 47.317 27.394 66.65 16.239 60.861 2.542 56.201 0 40.353 11.862 15.518 11.276Z" transform="matrix(1,0,0,-1,166.8363,779.09817)" data-darkreader-inline-fill="" style="--darkreader-inline-fill: #e7e3dd;"/>
      <path fill="#b42525" d="M0 0-1.97 192.502 59.773 194.641V386.52H197.938V194.722L260.024 192.135V0Z" transform="matrix(1,0,0,-1,263.2744,1267.6782)" data-darkreader-inline-fill="" style="--darkreader-inline-fill: #a22c2c;"/>
      <path fill="#fde0e0" d="M0 0H-162.165V-192.287L-224.028-194.43-221.817-410.52H62.086V-194.875L0-192.287ZM-24-24V-192.287-215.308L-.999-216.267 38.086-217.895V-386.52H-198.061L-199.79-217.605-161.335-216.273-138.165-215.47V-192.287-24Z" transform="matrix(1,0,0,-1,473.2128,869.1583)" data-darkreader-inline-fill="" style="--darkreader-inline-fill: #521111;"/>
      <path fill="#fde0e0" d="M0 0H-112.713V233.525H-2.211Z" transform="matrix(1,0,0,-1,251.3963,1279.678)" data-darkreader-inline-fill="" style="--darkreader-inline-fill: #521111;"/>
      <path fill="#fde0e0" d="M475.993 1076.789H307.338V1191.1329H475.993Z" transform="matrix(1,0,0,-1,0,1920)" data-darkreader-inline-fill="" style="--darkreader-inline-fill: #521111;"/>
      <path fill="#fde0e0" d="M0 0H-78.293C-80.215 0-81.773 1.558-81.773 3.481L-80.026 134.975C-30.405 161.035-64.817 170.105-44.077 170.105L-33.518 171.004C-12.779 171.004-11.834 136.329 3.481 136.006V3.481C3.481 1.558 1.922 0 0 0" transform="matrix(1,0,0,-1,338.1443,1279.678)" data-darkreader-inline-fill="" style="--darkreader-inline-fill: #521111;"/>
      <path fill="#fde0e0" d="M138.683 640.322H76.59599V790.713H138.683Z" transform="matrix(1,0,0,-1,0,1920)" data-darkreader-inline-fill="" style="--darkreader-inline-fill: #521111;"/>
      <path d="M0 0V181.488H-99.363L-101.334 .847H-92.703V127.11C-81.509 129.717-87.981 133.814-87.981 133.814-100.172 143.498-84.906 147.222-84.906 147.222-94.022 159.513-79.969 160.258-79.969 160.258-83.387 172.549-69.334 168.825-69.334 168.825-69.334 179.626-59.459 174.363-59.459 174.363-48.824 180.646-44.148 174.039-44.148 174.039-31.496 176.274-32.872 166.218-32.872 166.218-18.439 166.59-22.996 155.789-22.996 155.789-12.742 156.534-15.761 145.102-15.761 145.102-8.525 142.983-12.742 138.283-12.742 138.283-21.857 127.482-10.268 128.647-10.268 128.647L-9.77-1.875 0 0Z" stroke="#231f20" fill="none" stroke-linejoin="miter" stroke-miterlimit="10" stroke-linecap="butt" stroke-width="1" transform="matrix(1,0,0,-1,634.5522,1253.3428)" data-darkreader-inline-stroke="" style="--darkreader-inline-stroke: #e7e3de;"/>
      <path d="M633.212 852.896H539.959V867.36599H633.212Z" stroke="#231f20" fill="none" stroke-linejoin="miter" stroke-miterlimit="10" stroke-linecap="butt" stroke-width="1" transform="matrix(1,0,0,-1,0,1920)" data-darkreader-inline-stroke="" style="--darkreader-inline-stroke: #e7e3de;"/>
      <path fill="#b42525" d="M244.925 853.164H152.47602V867.098H244.925Z" transform="matrix(1,0,0,-1,0,1920)" data-darkreader-inline-fill="" style="--darkreader-inline-fill: #f06767;"/>
      <path fill="#fde0e0" d="M240.905 855.576H155.155V865.22299H240.905Z" transform="matrix(1,0,0,-1,0,1920)" data-darkreader-inline-fill="" style="--darkreader-inline-fill: #ffcccc;"/>
      <path fill="#fde0e0" d="M0 0-.742-59.459C-.742-59.459-11.548-57.742-10.768-52.124-9.652-44.088-12.798-40.111-17.479-40.888-17.479-40.888-13.733-29.027-29.651-29.652-29.651-29.652-28.715-19.53-43.697-21.87L-49.471-19.195-95.077-18.651-101.474-23.332C-114.627-18.805-114.627-30.355-114.627-30.355-132.26-29.263-126.645-42.057-126.645-42.057-132.807-39.171-134.348-44.116-133.666-52.201-133.12-58.679-143.889-58.679-143.889-58.679L-139.753 .859-68.18 2.575Z" transform="matrix(1,0,0,-1,464.5558,884.3545)" data-darkreader-inline-fill="" style="--darkreader-inline-fill: #521111;"/>
      <path fill="#212222" d="M0 0V-62.737C0-62.737-9.205-60.554-6.087-53.06-2.965-45.571-8.428-42.139-13.109-42.916-13.109-42.916-7.489-30.122-25.126-31.214-25.126-31.214-25.126-19.663-40.108-22.004L-46.505-17.323H-96.642L-103.039-22.004C-118.022-19.663-118.022-31.214-118.022-31.214-135.654-30.122-130.039-42.916-130.039-42.916-134.72-42.139-140.183-45.571-137.06-53.06-133.938-60.554-143.148-62.737-143.148-62.737V0L-71.574 1.716Z" transform="matrix(1,0,0,-1,463.8141,879.35989)" data-darkreader-inline-fill="" style="--darkreader-inline-fill: #27292a;"/>
      <path fill="#212222" d="M92.423 640.322H72.147998V668.877H92.423Z" transform="matrix(1,0,0,-1,0,1920)" data-darkreader-inline-fill="" style="--darkreader-inline-fill: #e7e3dd;"/>
      <path d="M0 0V80.173H-57.683L-58.5 0H-53.507V50.981C-47.046 52.085-51.722 57.372-51.722 57.372-58.759 61.473-50.019 62.122-50.019 62.122-55.281 67.328-46.157 68.662-46.157 68.662-48.13 73.867-40.018 72.29-40.018 72.29-40.018 76.864-34.319 74.635-34.319 74.635-28.18 77.296-25.481 74.498-25.481 74.498-18.179 75.445-18.973 71.186-18.973 71.186-10.643 71.344-13.273 66.769-13.273 66.769-7.354 67.085-9.097 62.244-9.097 62.244-3.753 59.618-9.572 57.372-9.572 57.372-14.833 52.798-5.03 50.376-5.03 50.376L-5.639 0H0Z" stroke="#231f20" fill="none" stroke-linejoin="miter" stroke-miterlimit="10" stroke-linecap="butt" stroke-width="1" transform="matrix(1,0,0,-1,422.1196,1051.0519)" data-darkreader-inline-stroke="" style="--darkreader-inline-stroke: #e7e3de;"/>
      <path fill="#b42525" d="M0 0H-27.39C-29.296 1.611-32.093 4.21-33.429 6.039V127.881H4.565V4.565C3.83 3.073 1.615 1.269 0 0" transform="matrix(1,0,0,-1,290.4136,1046.1531)" data-darkreader-inline-fill="" style="--darkreader-inline-fill: #a22c2c;"/>
      <path fill="#fde0e0" d="M0 0V95.474H-29.762L-30.184 0H-27.607V60.71C-24.274 62.025-26.687 68.321-26.687 68.321-30.317 73.205-25.808 73.978-25.808 73.978-28.523 80.176-23.815 81.766-23.815 81.766-24.833 87.964-20.648 86.086-20.648 86.086-20.648 91.533-17.707 88.879-17.707 88.879-14.54 92.048-13.147 88.715-13.147 88.715-9.38 89.842-9.789 84.771-9.789 84.771-5.491 84.959-6.848 79.512-6.848 79.512-3.794 79.887-4.694 74.122-4.694 74.122-1.936 70.995-4.939 68.321-4.939 68.321-7.653 62.874-2.595 59.99-2.595 59.99L-2.91 0Z" transform="matrix(1,0,0,-1,291.3071,1041.6185)" data-darkreader-inline-fill="" style="--darkreader-inline-fill: #ffcccc;"/>
      <path fill="#d42027" d="M0 0 38.832-.3 35.554-3.985 33.98-4.61H31.236L4.09-4.345 2.596-3.651Z" transform="matrix(1,0,0,-1,257.1604,1041.5427)" data-darkreader-inline-fill="" style="--darkreader-inline-fill: #f74d54;"/>
      <path fill="#fde0e0" d="M296.936 981.827H254.50601V987.544H296.936Z" transform="matrix(1,0,0,-1,0,1920)" data-darkreader-inline-fill="" style="--darkreader-inline-fill: #ffcccc;"/>
      <path fill="#fde0e0" d="M296.936 996.643H254.50601V1004.307H296.936Z" transform="matrix(1,0,0,-1,0,1920)" data-darkreader-inline-fill="" style="--darkreader-inline-fill: #ffcccc;"/>
      <path fill="#fde0e0" d="M288.45 880.451H263.7V896.32199H288.45Z" transform="matrix(1,0,0,-1,0,1920)" data-darkreader-inline-fill="" style="--darkreader-inline-fill: #ffcccc;"/>
      <path fill="#8a181c" d="M0 0H42.184L47.488-.072 47.858-1.553H-.493Z" transform="matrix(1,0,0,-1,251.8897,938.1732)" data-darkreader-inline-fill="" style="--darkreader-inline-fill: #fc8488;"/>
      <path fill="#d42027" d="M0 0H48.351L45.54-7.894 43.582-7.236V-4.088H7.236L5.588-3.947 5.764-7.894H3.783Z" transform="matrix(1,0,0,-1,251.3963,939.7258)" data-darkreader-inline-fill="" style="--darkreader-inline-fill: #f74d54;"/>
      <path fill="#8a181c" d="M0 0V1.608L39.82 1.855 39.89-.316 36.188-4.105 39.89-.316Z" transform="matrix(1,0,0,-1,256.5267,1041.4221)" data-darkreader-inline-fill="" style="--darkreader-inline-fill: #fc8488;"/>
      <path fill="#b42525" d="M0 0H27.39C29.296 1.611 32.093 4.21 33.429 6.039V127.881H-4.565V4.565C-3.83 3.073-1.615 1.269 0 0" transform="matrix(1,0,0,-1,493.7198,1046.1531)" data-darkreader-inline-fill="" style="--darkreader-inline-fill: #a22c2c;"/>
      <path fill="#fde0e0" d="M0 0V95.474H29.762L30.184 0H27.607V60.71C24.274 62.025 26.687 68.321 26.687 68.321 30.317 73.205 25.808 73.978 25.808 73.978 28.523 80.176 23.815 81.766 23.815 81.766 24.833 87.964 20.648 86.086 20.648 86.086 20.648 91.533 17.707 88.879 17.707 88.879 14.54 92.048 13.147 88.715 13.147 88.715 9.38 89.842 9.789 84.771 9.789 84.771 5.491 84.959 6.848 79.512 6.848 79.512 3.794 79.887 4.694 74.122 4.694 74.122 1.936 70.995 4.939 68.321 4.939 68.321 7.653 62.874 2.595 59.99 2.595 59.99L2.91 0Z" transform="matrix(1,0,0,-1,492.8264,1041.6185)" data-darkreader-inline-fill="" style="--darkreader-inline-fill: #ffcccc;"/>
      <path fill="#d42027" d="M0 0-38.832-.3-35.554-3.985-33.98-4.61H-31.236L-4.09-4.345-2.596-3.651Z" transform="matrix(1,0,0,-1,526.9731,1041.5427)" data-darkreader-inline-fill="" style="--darkreader-inline-fill: #f74d54;"/>
      <path fill="#fde0e0" d="M487.197 981.827H529.627V987.544H487.197Z" transform="matrix(1,0,0,-1,0,1920)" data-darkreader-inline-fill="" style="--darkreader-inline-fill: #ffcccc;"/>
      <path fill="#fde0e0" d="M487.197 996.643H529.627V1004.307H487.197Z" transform="matrix(1,0,0,-1,0,1920)" data-darkreader-inline-fill="" style="--darkreader-inline-fill: #ffcccc;"/>
      <path fill="#fde0e0" d="M495.684 880.451H520.43399V896.32199H495.684Z" transform="matrix(1,0,0,-1,0,1920)" data-darkreader-inline-fill="" style="--darkreader-inline-fill: #ffcccc;"/>
      <path fill="#8a181c" d="M0 0H-42.184L-47.488-.072-47.858-1.553H.493Z" transform="matrix(1,0,0,-1,532.2438,938.1732)" data-darkreader-inline-fill="" style="--darkreader-inline-fill: #fc8488;"/>
      <path fill="#d42027" d="M0 0H-48.351L-45.54-7.894-43.582-7.236V-4.088H-7.236L-5.588-3.947-5.764-7.894H-3.783Z" transform="matrix(1,0,0,-1,532.7372,939.7258)" data-darkreader-inline-fill="" style="--darkreader-inline-fill: #f74d54;"/>
      <path fill="#8a181c" d="M0 0V1.608L-39.82 1.855-39.89-.316-36.188-4.105-39.89-.316Z" transform="matrix(1,0,0,-1,527.6068,1041.4221)" data-darkreader-inline-fill="" style="--darkreader-inline-fill: #fc8488;"/>
      <path fill="#b42525" d="M149.04 1016.321H244.71799V1083.554H149.04Z" transform="matrix(1,0,0,-1,0,1920)" data-darkreader-inline-fill="" style="--darkreader-inline-fill: #f06767;"/>
      <path fill="#fde0e0" d="M0 0V55.878H24.466L24.813 0H22.695V35.532C19.954 36.301 21.938 39.986 21.938 39.986 24.922 42.845 21.216 43.297 21.216 43.297 23.447 46.925 19.577 47.855 19.577 47.855 20.414 51.483 16.974 50.383 16.974 50.383 16.974 53.572 14.556 52.018 14.556 52.018 11.953 53.873 10.808 51.922 10.808 51.922 7.71 52.582 8.047 49.614 8.047 49.614 4.514 49.724 5.63 46.536 5.63 46.536 3.119 46.756 3.858 43.382 3.858 43.382 1.592 41.551 4.06 39.986 4.06 39.986 6.291 36.798 2.134 35.11 2.134 35.11L2.392 0Z" transform="matrix(1,0,0,-1,183.5436,895.40737)" data-darkreader-inline-fill="" style="--darkreader-inline-fill: #ffcccc;"/>
      <path fill="#fde0e0" d="M0 0V55.878H24.466L24.813 0H22.695V35.532C19.954 36.301 21.938 39.986 21.938 39.986 24.922 42.845 21.216 43.297 21.216 43.297 23.447 46.925 19.577 47.855 19.577 47.855 20.414 51.483 16.974 50.383 16.974 50.383 16.974 53.572 14.556 52.018 14.556 52.018 11.953 53.873 10.808 51.922 10.808 51.922 7.71 52.582 8.047 49.614 8.047 49.614 4.514 49.724 5.63 46.536 5.63 46.536 3.119 46.756 3.858 43.382 3.858 43.382 1.592 41.551 4.06 39.986 4.06 39.986 6.291 36.798 2.134 35.11 2.134 35.11L2.392 0Z" transform="matrix(1,0,0,-1,214.1529,895.40737)" data-darkreader-inline-fill="" style="--darkreader-inline-fill: #ffcccc;"/>
      <path fill="#fde0e0" d="M0 0V55.878H24.466L24.813 0H22.695V35.532C19.954 36.301 21.938 39.986 21.938 39.986 24.922 42.845 21.216 43.297 21.216 43.297 23.447 46.925 19.577 47.855 19.577 47.855 20.414 51.483 16.974 50.383 16.974 50.383 16.974 53.571 14.556 52.018 14.556 52.018 11.953 53.873 10.808 51.922 10.808 51.922 7.71 52.582 8.047 49.614 8.047 49.614 4.514 49.724 5.63 46.536 5.63 46.536 3.119 46.756 3.858 43.382 3.858 43.382 1.592 41.551 4.06 39.986 4.06 39.986 6.291 36.798 2.134 35.11 2.134 35.11L2.392 0Z" transform="matrix(1,0,0,-1,153.5976,896.2309)" data-darkreader-inline-fill="" style="--darkreader-inline-fill: #ffcccc;"/>
      <path fill="#b42525" d="M0 0-.033 45.348H24.334L24.779 .383H22.661V27.372C19.921 27.957 21.905 30.756 21.905 30.756 24.889 32.927 21.182 33.271 21.182 33.271 23.414 36.026 19.544 36.733 19.544 36.733 20.381 39.488 16.94 38.653 16.94 38.653 16.94 41.075 14.523 39.895 14.523 39.895 11.919 41.304 10.775 39.822 10.775 39.822 7.677 40.323 8.014 38.069 8.014 38.069 4.481 38.152 5.597 35.731 5.597 35.731 3.086 35.898 3.825 33.335 3.825 33.335 1.559 31.945 4.027 30.756 4.027 30.756 6.258 28.334 2.1 27.052 2.1 27.052L2.178 0Z" transform="matrix(1,0,0,-1,182.4097,809.0685)" data-darkreader-inline-fill="" style="--darkreader-inline-fill: #f06767;"/>
      <path fill="#b42525" d="M0 0-.043 96.832H31.262L31.835 .818H29.114V58.449C25.593 59.698 28.141 65.674 28.141 65.674 31.975 70.31 27.213 71.044 27.213 71.044 30.08 76.928 25.108 78.437 25.108 78.437 26.184 84.321 21.764 82.538 21.764 82.538 21.764 87.709 18.658 85.189 18.658 85.189 15.313 88.197 13.842 85.034 13.842 85.034 9.863 86.104 10.296 81.29 10.296 81.29 5.757 81.468 7.19 76.297 7.19 76.297 3.965 76.654 4.914 71.181 4.914 71.181 2.002 68.213 5.173 65.674 5.173 65.674 8.04 60.503 2.698 57.766 2.698 57.766L2.799 0Z" transform="matrix(1,0,0,-1,376.4733,822.41287)" data-darkreader-inline-fill="" style="--darkreader-inline-fill: #f06767;"/>
      <path fill="#b42525" d="M0 0-.036 80.712H26.575L27.062 .682H24.749V48.719C21.756 49.759 23.922 54.741 23.922 54.741 27.182 58.605 23.133 59.217 23.133 59.217 25.571 64.121 21.344 65.379 21.344 65.379 22.258 70.283 18.501 68.797 18.501 68.797 18.501 73.107 15.861 71.007 15.861 71.007 13.017 73.514 11.767 70.878 11.767 70.878 8.384 71.77 8.752 67.757 8.752 67.757 4.893 67.905 6.112 63.595 6.112 63.595 3.37 63.893 4.177 59.331 4.177 59.331 1.702 56.857 4.397 54.741 4.397 54.741 6.835 50.431 2.294 48.149 2.294 48.149L2.379 0Z" transform="matrix(1,0,0,-1,350.4842,822.41287)" data-darkreader-inline-fill="" style="--darkreader-inline-fill: #f06767;"/>
      <path fill="#b42525" d="M0 0-.041 80.712H30.301L30.856 .682H28.219V48.719C24.806 49.759 27.276 54.741 27.276 54.741 30.993 58.605 26.377 59.217 26.377 59.217 29.156 64.121 24.337 65.379 24.337 65.379 25.379 70.283 21.095 68.797 21.095 68.797 21.095 73.107 18.084 71.007 18.084 71.007 14.842 73.514 13.417 70.878 13.417 70.878 9.56 71.77 9.979 67.757 9.979 67.757 5.58 67.905 6.969 63.595 6.969 63.595 3.843 63.893 4.763 59.331 4.763 59.331 1.941 56.857 5.014 54.741 5.014 54.741 7.793 50.431 2.615 48.149 2.615 48.149L2.713 0Z" transform="matrix(1,0,0,-1,314.2183,822.41287)" data-darkreader-inline-fill="" style="--darkreader-inline-fill: #f06767;"/>
      <path fill="#b42525" d="M0 0-.041 80.712H30.301L30.856 .682H28.219V48.719C24.806 49.759 27.276 54.741 27.276 54.741 30.993 58.605 26.377 59.217 26.377 59.217 29.156 64.121 24.337 65.379 24.337 65.379 25.379 70.283 21.095 68.797 21.095 68.797 21.095 73.107 18.084 71.007 18.084 71.007 14.842 73.514 13.417 70.878 13.417 70.878 9.56 71.77 9.979 67.757 9.979 67.757 5.58 67.905 6.969 63.595 6.969 63.595 3.843 63.893 4.763 59.331 4.763 59.331 1.941 56.857 5.014 54.741 5.014 54.741 7.793 50.431 2.615 48.149 2.615 48.149L2.713 0Z" transform="matrix(1,0,0,-1,438.7171,822.41287)" data-darkreader-inline-fill="" style="--darkreader-inline-fill: #f06767;"/>
      <path fill="#b42525" d="M0 0-.031 80.448H22.397L22.807 .68H20.857V48.56C18.335 49.597 20.161 54.562 20.161 54.562 22.908 58.414 19.496 59.024 19.496 59.024 21.55 63.912 17.988 65.165 17.988 65.165 18.758 70.054 15.592 68.573 15.592 68.573 15.592 72.869 13.367 70.775 13.367 70.775 10.97 73.274 9.917 70.646 9.917 70.646 7.066 71.535 7.376 67.536 7.376 67.536 4.124 67.684 5.151 63.388 5.151 63.388 2.84 63.684 3.521 59.138 3.521 59.138 1.434 56.671 3.706 54.562 3.706 54.562 5.76 50.266 1.933 47.992 1.933 47.992L2.005 0Z" transform="matrix(1,0,0,-1,407.7955,822.1494)" data-darkreader-inline-fill="" style="--darkreader-inline-fill: #f06767;"/>
      <path fill="#8a181c" d="M0 0-104.777-.809-98.264-3.902H-67.947-2.878Z" transform="matrix(1,0,0,-1,247.5952,902.8695)" data-darkreader-inline-fill="" style="--darkreader-inline-fill: #fc8488;"/>
      <path fill="#ba2025" d="M0 0H-95.386L-88.97-7.185 3.289-6.752Z" transform="matrix(1,0,0,-1,244.7172,906.7713)" data-darkreader-inline-fill="" style="--darkreader-inline-fill: #f66166;"/>
      <path fill="#8a181c" d="M0 0-3.289 6.752-.411 10.654 2.467 2.312Z" transform="matrix(1,0,0,-1,248.0064,913.5237)" data-darkreader-inline-fill="" style="--darkreader-inline-fill: #fc8488;"/>
      <path fill="#8a181c" d="M0 0 6.512-3.093 12.929-10.277 7.252-8.026C7.252-8.026-2.781 .188 0 0" transform="matrix(1,0,0,-1,142.8186,903.6787)" data-darkreader-inline-fill="" style="--darkreader-inline-fill: #fc8488;"/>
      <path fill="#facaca" d="M179.648 1009.636H212.319V1014.21499H179.648Z" transform="matrix(1,0,0,-1,0,1920)" data-darkreader-inline-fill="" style="--darkreader-inline-fill: #ffbebe;"/>
      <path fill="#fde0e0" d="M0 0 2.725 3.592H-29.946L-27.7 .122Z" transform="matrix(1,0,0,-1,209.5942,913.9559)" data-darkreader-inline-fill="" style="--darkreader-inline-fill: #ffcccc;"/>
      <path fill="#fde0e0" d="M183.544 1016.509H209.63501V1025.09H183.544Z" transform="matrix(1,0,0,-1,0,1920)" data-darkreader-inline-fill="" style="--darkreader-inline-fill: #ffcccc;"/>
      <path fill="#fde0e0" d="M213.514 1016.509H239.60501V1025.09H213.514Z" transform="matrix(1,0,0,-1,0,1920)" data-darkreader-inline-fill="" style="--darkreader-inline-fill: #ffcccc;"/>
      <path fill="#fde0e0" d="M153.598 1016.321H179.68901V1025.09H153.598Z" transform="matrix(1,0,0,-1,0,1920)" data-darkreader-inline-fill="" style="--darkreader-inline-fill: #ffcccc;"/>
      <path fill="#9a2028" d="M0 0 19.199-20.384V-157.572L-15.401-154.925-13.351-27.173-14.112 4.203Z" transform="matrix(1,0,0,-1,172.3779,1097.5701)" data-darkreader-inline-fill="" style="--darkreader-inline-fill: #8c282e;"/>
      <path fill="#212222" d="M0 0H-28.26V28.555L0 24.3Z" transform="matrix(1,0,0,-1,191.5765,1279.678)" data-darkreader-inline-fill="" style="--darkreader-inline-fill: #e7e3dd;"/>
      <path fill="#8a181c" d="M0 0-54.964 1.5-74.163 21.884-88.275 26.087-61.857 45.117-13.531 44.042-1.616 26.087Z" transform="matrix(1,0,0,-1,246.5405,1119.4544)" data-darkreader-inline-fill="" style="--darkreader-inline-fill: #fc8488;"/>
      <path fill="#b42525" d="M0 0V126.38C0 126.38 14.153 125.262 5.214 136.063 5.214 136.063 1.079 140.763 8.175 142.883 8.175 142.883 5.214 154.314 15.271 153.569 15.271 153.569 10.801 164.37 24.954 163.998 24.954 163.998 23.605 174.054 36.012 171.819 36.012 171.819 40.598 178.426 51.026 172.143 51.026 172.143 60.71 177.406 60.71 166.605 60.71 166.605 74.491 170.329 71.139 158.038 71.139 158.038 84.92 157.293 75.981 145.002 75.981 145.002 90.951 141.278 78.997 131.594 78.997 131.594 72.65 127.497 83.627 124.89V-1.373H92.091L90.158 179.268H-8.194V-1.373" transform="matrix(1,0,0,-1,159.0274,1251.1229)" data-darkreader-inline-fill="" style="--darkreader-inline-fill: #a22c2c;"/>
      <path fill="#fde0e0" d="M0 0H114.159V233.525H2.24Z" transform="matrix(1,0,0,-1,531.4322,1280.2988)" data-darkreader-inline-fill="" style="--darkreader-inline-fill: #521111;"/>
      <path fill="#b42525" d="M539.321 853.164H631.76998V867.098H539.321Z" transform="matrix(1,0,0,-1,0,1920)" data-darkreader-inline-fill="" style="--darkreader-inline-fill: #f06767;"/>
      <path fill="#fde0e0" d="M543.341 855.576H629.091V865.22299H543.341Z" transform="matrix(1,0,0,-1,0,1920)" data-darkreader-inline-fill="" style="--darkreader-inline-fill: #ffcccc;"/>
      <path fill="#9a2028" d="M0 0-19.199-20.384V-165.699L15.401-154.925 13.351-27.173 14.112 4.203Z" transform="matrix(1,0,0,-1,611.8683,1097.5701)" data-darkreader-inline-fill="" style="--darkreader-inline-fill: #8c282e;"/>
      <path fill="#212222" d="M0 0 28.875 .266 28.26 29.176 0 24.628Z" transform="matrix(1,0,0,-1,592.6697,1280.2988)" data-darkreader-inline-fill="" style="--darkreader-inline-fill: #e7e3dd;"/>
      <path fill="#8a181c" d="M0 0 54.964 1.5 74.163 21.884 88.275 26.087 61.857 45.117 13.531 44.042 1.616 26.087Z" transform="matrix(1,0,0,-1,537.7057,1119.4544)" data-darkreader-inline-fill="" style="--darkreader-inline-fill: #fc8488;"/>
      <path fill="#b42525" d="M0 0V129.67C0 129.67-14.153 128.512-5.214 139.704-5.214 139.704-1.079 144.573-8.175 146.769-8.175 146.769-5.214 158.614-15.271 157.842-15.271 157.842-10.801 169.034-24.954 168.648-24.954 168.648-23.605 179.068-36.012 176.752-36.012 176.752-40.598 183.598-51.026 177.088-51.026 177.088-60.71 182.541-60.71 171.349-60.71 171.349-74.491 175.208-71.139 162.473-71.139 162.473-84.92 161.701-75.981 148.966-75.981 148.966-90.951 145.107-78.997 135.073-78.997 135.073-72.65 130.827-83.627 128.126V-2.701H-92.091L-90.157 184.471H8.194V-.772" transform="matrix(1,0,0,-1,625.2189,1256.3253)" data-darkreader-inline-fill="" style="--darkreader-inline-fill: #a22c2c;"/>
      <path fill="#212222" d="M0 0 10.284-9.722V-28.555H0Z" transform="matrix(1,0,0,-1,92.4231,1251.1229)" data-darkreader-inline-fill="" style="--darkreader-inline-fill: #e7e3dd;"/>
      <path fill="#b42525" d="M0 0V-105.603L1.128-31.903C1.128-31.903 2.569-25.613 15.67-19.097 15.67-19.097 24.771-11.234 25.647-6.291 25.647-6.291 24.725-11.908 37.987-20.445 37.987-20.445 53-25.748 54.26-36.577 55.52-47.406 54.26-104.473 54.26-104.473V0Z" transform="matrix(1,0,0,-1,84.4479,1145.52)" data-darkreader-inline-fill="" style="--darkreader-inline-fill: #f06767;"/>
      <path fill="#b42525" d="M136.344 776.727H78.157V786.613H136.344Z" transform="matrix(1,0,0,-1,0,1920)" data-darkreader-inline-fill="" style="--darkreader-inline-fill: #f06767;"/>
      <path fill="#fde0e0" d="M645.978 640.322H708.065V790.713H645.978Z" transform="matrix(1,0,0,-1,0,1920)" data-darkreader-inline-fill="" style="--darkreader-inline-fill: #521111;"/>
      <path fill="#212222" d="M0 0 19.757-.015V28.538H.449Z" transform="matrix(1,0,0,-1,691.7881,1279.6607)" data-darkreader-inline-fill="" style="--darkreader-inline-fill: #e7e3dd;"/>
      <path fill="#212222" d="M0 0-17.66-10.393V-28.553H0Z" transform="matrix(1,0,0,-1,692.2371,1251.1227)" data-darkreader-inline-fill="" style="--darkreader-inline-fill: #e7e3dd;"/>
      <path fill="#b42525" d="M0 0V-105.603L-1.128-31.903C-1.128-31.903-2.569-25.613-15.67-19.097-15.67-19.097-24.771-11.234-25.647-6.291-25.647-6.291-24.725-11.908-37.987-20.445-37.987-20.445-53-25.748-54.26-36.577-55.52-47.406-54.26-104.473-54.26-104.473V0Z" transform="matrix(1,0,0,-1,700.2125,1145.52)" data-darkreader-inline-fill="" style="--darkreader-inline-fill: #f06767;"/>
      <path fill="#b42525" d="M648.317 776.727H706.504V786.613H648.317Z" transform="matrix(1,0,0,-1,0,1920)" data-darkreader-inline-fill="" style="--darkreader-inline-fill: #f06767;"/>
      <path fill="#8a181c" d="M0 0C11.281 9.29 42.595 25.736 74.805-1.766 77.593-4.146 79.007-7.95 79.007-11.784V-25.284C79.007-25.284 55.678-1.466 36.514-2.517 17.35-3.568-1.099-23.714-4.498-26.331V-9.845C-4.498-5.988-2.844-2.342 0 0" transform="matrix(1,0,0,-1,262.6169,1119.1896)" data-darkreader-inline-fill="" style="--darkreader-inline-fill: #fc8488;"/>
      <path fill="#212222" d="M0 0-3.114-.899V.899C-3.114 .899-16.371 21.162-42.443 20.449-49.169 20.265-67.255 18.948-80.401 0H-83.322V-22.272C-83.322-22.272-78.687 5.298-45.024 8.232-45.024 8.232-10.448 13.064 .184-23.012Z" transform="matrix(1,0,0,-1,341.4412,1139.9033)" data-darkreader-inline-fill="" style="--darkreader-inline-fill: #e7e3dd;"/>
      <path fill="#8a181c" d="M0 0C0-2.234-1.811-4.044-4.044-4.044-6.278-4.044-8.088-2.234-8.088 0-8.088 2.233-6.278 6.291-4.044 6.291-1.811 6.291 0 2.233 0 0" transform="matrix(1,0,0,-1,262.1635,1197.4193)" data-darkreader-inline-fill="" style="--darkreader-inline-fill: #fc8488;"/>
      <path fill="#8a181c" d="M262.164 727.523H254.076V744.823H262.164Z" transform="matrix(1,0,0,-1,0,1920)" data-darkreader-inline-fill="" style="--darkreader-inline-fill: #fc8488;"/>
      <path fill="#8a181c" d="M0 0H-3.727C-6.113 0-8.164 22.328-8.088 24.713L-6.653 44.881C-6.653 47.447-6.008 49.425-3.442 49.425H0Z" transform="matrix(1,0,0,-1,262.1635,1250.0718)" data-darkreader-inline-fill="" style="--darkreader-inline-fill: #fc8488;"/>
      <path fill="#8a181c" d="M0 0C0-2.865-2.322-5.187-5.187-5.187-8.051-5.187-10.373-2.865-10.373 0-10.373 2.865-8.051 5.187-5.187 5.187-2.322 5.187 0 2.865 0 0" transform="matrix(1,0,0,-1,263.305,1247.3088)" data-darkreader-inline-fill="" style="--darkreader-inline-fill: #fc8488;"/>
      <path fill="#8a181c" d="M0 0C0-2.234 1.811-4.044 4.044-4.044 6.278-4.044 8.088-2.234 8.088 0 8.088 2.233 6.278 6.291 4.044 6.291 1.811 6.291 0 2.233 0 0" transform="matrix(1,0,0,-1,337.5801,1197.4193)" data-darkreader-inline-fill="" style="--darkreader-inline-fill: #fc8488;"/>
      <path fill="#8a181c" d="M337.58 727.523H345.668V744.823H337.58Z" transform="matrix(1,0,0,-1,0,1920)" data-darkreader-inline-fill="" style="--darkreader-inline-fill: #fc8488;"/>
      <path fill="#8a181c" d="M0 0H3.727C6.113 0 8.164 22.328 8.088 24.713L6.653 44.881C6.653 47.447 6.008 49.425 3.442 49.425H0Z" transform="matrix(1,0,0,-1,337.5801,1250.0718)" data-darkreader-inline-fill="" style="--darkreader-inline-fill: #fc8488;"/>
      <path fill="#8a181c" d="M0 0C0-2.865 2.322-5.187 5.187-5.187 8.051-5.187 10.373-2.865 10.373 0 10.373 2.865 8.051 5.187 5.187 5.187 2.322 5.187 0 2.865 0 0" transform="matrix(1,0,0,-1,336.4385,1247.3088)" data-darkreader-inline-fill="" style="--darkreader-inline-fill: #fc8488;"/>
      <path fill="#212222" d="M0 0H28.32V-29.604L-.684-29.934Z" transform="matrix(1,0,0,-1,243.9179,1250.0718)" data-darkreader-inline-fill="" style="--darkreader-inline-fill: #e7e3dd;"/>
      <path fill="#212222" d="M0 0 3.644 4.653 4.026-25.281 0-24.99Z" transform="matrix(1,0,0,-1,240.2744,1254.725)" data-darkreader-inline-fill="" style="--darkreader-inline-fill: #e7e3dd;"/>
      <path fill="#fde0e0" d="M0 0H78.293C80.215 0 81.773 1.558 81.773 3.481V129.371C81.773 150.11 58.004 169.603 37.265 169.603L42.395 165.465C21.656 165.465-3.481 150.11-3.481 129.371V3.481C-3.481 1.558-1.922 0 0 0" transform="matrix(1,0,0,-1,446.1142,1279.678)" data-darkreader-inline-fill="" style="--darkreader-inline-fill: #521111;"/>
      <path fill="#8a181c" d="M0 0C-11.281 9.638-42.595 26.7-74.805-1.832-77.593-4.301-79.007-8.247-79.007-12.225V-26.23C-79.007-26.23-55.678-1.521-36.514-2.611-17.35-3.701 1.099-24.602 4.498-27.316V-10.214C4.498-6.212 2.844-2.429 0 0" transform="matrix(1,0,0,-1,521.6416,1119.6919)" data-darkreader-inline-fill="" style="--darkreader-inline-fill: #fc8488;"/>
      <path fill="#212222" d="M0 0 3.114-.899V.899C3.114 .899 14.469 20.483 42.443 20.449 49.172 20.441 68.85 18.948 80.401 0H83.322V-22.272C83.322-22.272 76.106 7.682 42.443 10.616 42.443 10.616 10.448 13.064-.184-23.012Z" transform="matrix(1,0,0,-1,442.8174,1139.9033)" data-darkreader-inline-fill="" style="--darkreader-inline-fill: #e7e3dd;"/>
      <path fill="#8a181c" d="M0 0C0-2.234 1.811-4.044 4.044-4.044 6.278-4.044 8.088-2.234 8.088 0 8.088 2.233 6.278 6.291 4.044 6.291 1.811 6.291 0 2.233 0 0" transform="matrix(1,0,0,-1,522.095,1197.4193)" data-darkreader-inline-fill="" style="--darkreader-inline-fill: #fc8488;"/>
      <path fill="#8a181c" d="M522.095 727.523H530.183V744.823H522.095Z" transform="matrix(1,0,0,-1,0,1920)" data-darkreader-inline-fill="" style="--darkreader-inline-fill: #fc8488;"/>
      <path fill="#8a181c" d="M0 0H3.727C6.113 0 8.164 22.328 8.088 24.713L6.653 44.881C6.653 47.447 6.008 49.425 3.442 49.425H0Z" transform="matrix(1,0,0,-1,522.095,1250.0718)" data-darkreader-inline-fill="" style="--darkreader-inline-fill: #fc8488;"/>
      <path fill="#8a181c" d="M0 0C0-2.865 2.322-5.187 5.187-5.187 8.051-5.187 10.373-2.865 10.373 0 10.373 2.865 8.051 5.187 5.187 5.187 2.322 5.187 0 2.865 0 0" transform="matrix(1,0,0,-1,520.9535,1247.3088)" data-darkreader-inline-fill="" style="--darkreader-inline-fill: #fc8488;"/>
      <path fill="#8a181c" d="M0 0C0-2.234-1.811-4.044-4.044-4.044-6.278-4.044-8.088-2.234-8.088 0-8.088 2.233-6.278 6.291-4.044 6.291-1.811 6.291 0 2.233 0 0" transform="matrix(1,0,0,-1,446.6785,1197.4193)" data-darkreader-inline-fill="" style="--darkreader-inline-fill: #fc8488;"/>
      <path fill="#8a181c" d="M446.678 727.523H438.59V744.823H446.678Z" transform="matrix(1,0,0,-1,0,1920)" data-darkreader-inline-fill="" style="--darkreader-inline-fill: #fc8488;"/>
      <path fill="#8a181c" d="M0 0H-3.727C-6.113 0-8.164 22.328-8.088 24.713L-6.653 44.881C-6.653 47.447-6.008 49.425-3.442 49.425H0Z" transform="matrix(1,0,0,-1,446.6785,1250.0718)" data-darkreader-inline-fill="" style="--darkreader-inline-fill: #fc8488;"/>
      <path fill="#8a181c" d="M0 0C0-2.865-2.322-5.187-5.187-5.187-8.051-5.187-10.373-2.865-10.373 0-10.373 2.865-8.051 5.187-5.187 5.187-2.322 5.187 0 2.865 0 0" transform="matrix(1,0,0,-1,447.82,1247.3088)" data-darkreader-inline-fill="" style="--darkreader-inline-fill: #fc8488;"/>
      <path fill="#212222" d="M0 0H-28.32L-27.648-29.606 .648-30.227Z" transform="matrix(1,0,0,-1,540.3406,1250.0718)" data-darkreader-inline-fill="" style="--darkreader-inline-fill: #e7e3dd;"/>
      <path fill="#212222" d="M0 0 4.398-5.52 3.756-30.227H.648Z" transform="matrix(1,0,0,-1,540.3406,1250.0718)" data-darkreader-inline-fill="" style="--darkreader-inline-fill: #e7e3dd;"/>
      <path fill="#8a181c" d="M255.994 1086.357H135.15201V1094.248H255.994Z" transform="matrix(1,0,0,-1,0,1920)" data-darkreader-inline-fill="" style="--darkreader-inline-fill: #fc8488;"/>
      <path fill="#ba2025" d="M0 0H-15.728L-24.522 17.811H16.512L18.09 20.065H74.453L73.101 17.36 114.584 17.585 107.233 .902H92.375L92.046 12.528H.607Z" transform="matrix(1,0,0,-1,149.7518,848.97366)" data-darkreader-inline-fill="" style="--darkreader-inline-fill: #a7282c;"/>
      <path fill="#212222" d="M0 0H-106.742C-109.766 0-112.218-2.452-112.218-5.477V-9.694H6.008V-6.008C6.008-2.69 3.318 0 0 0" transform="matrix(1,0,0,-1,248.4971,816.0576)" data-darkreader-inline-fill="" style="--darkreader-inline-fill: #e7e3dd;"/>
      <path fill="#8a181c" d="M0 0 3.438 6.989H110.426L114.079 0Z" transform="matrix(1,0,0,-1,138.7587,816.0576)" data-darkreader-inline-fill="" style="--darkreader-inline-fill: #fc8488;"/>
      <path fill="#d42027" d="M0 0C0 0-2.845 11.281 9.55 12.066 9.55 12.066 9.648 13.953 12.395 14.911 13.825 15.409 16.253 15.178 19.162 15.317 24.684 15.581 25.729 15.442 27.735 15.476 30.534 15.525 33.067 14.821 32.713 12.269 32.713 12.269 41.044 12.94 41.349 3.156V0Z" transform="matrix(1,0,0,-1,174.1569,828.9083)" data-darkreader-inline-fill="" style="--darkreader-inline-fill: #f74d54;"/>
      <path fill="#d42027" d="M0 0C0-.241-.194-.436-.43-.436H-5.767C-6.003-.436-6.198-.241-6.198 0-6.198 .236-6.003 .43-5.767 .43H-4.319C-4.718 .761-4.975 1.265-4.975 1.821V2.729C-4.975 3.568-4.403 4.277-3.631 4.492H-3.652V13.906H-2.676V4.492C-2.361 4.408-2.078 4.24-1.858 4.015-1.522 3.684-1.317 3.227-1.317 2.729V1.821C-1.317 1.265-1.574 .761-1.973 .43H-.43C-.194 .43 0 .236 0 0" transform="matrix(1,0,0,-1,198.9453,812.9918)" data-darkreader-inline-fill="" style="--darkreader-inline-fill: #f74d54;"/>
      <path fill="#b42525" d="M0 0-14.863-11.638V-30.398H-13.681L-13.543-45.348H-11.325L-11.481-28.387C-11.481-28.387-9.545-24.49-12.204-24.49-14.863-24.49-11.909-22.482-11.909-22.482-11.909-22.482-14.42-18.729-10.875-17.843-10.875-17.843-12.627-14.74-8.501-13.706-8.501-13.706-8.363-9.866-5.261-12.377-5.261-12.377-2.75-12.82-3.046-14.445-3.046-14.445-1.568-15.479-2.307-17.99-2.307-17.99-.83-19.32-2.455-21.388-2.455-21.388-3.637-25.081-1.421-26.41L-1.568-45.348H-.239Z" transform="matrix(1,0,0,-1,182.3764,763.72097)" data-darkreader-inline-fill="" style="--darkreader-inline-fill: #f06767;"/>
      <path fill="#b42525" d="M0 0 16.541-11.638V-30.398H15.226L15.072-45.348H12.604L12.777-28.387C12.777-28.387 10.623-24.49 13.582-24.49 16.541-24.49 13.253-22.482 13.253-22.482 13.253-22.482 16.048-18.729 12.102-17.842 12.102-17.842 14.053-14.74 9.461-13.706 9.461-13.706 9.308-9.866 5.855-12.377 5.855-12.377 3.061-12.82 3.39-14.445 3.39-14.445 1.746-15.479 2.568-17.99 2.568-17.99 .924-19.32 2.732-21.388 2.732-21.388 4.047-25.081 1.581-26.41L1.746-45.348H.266Z" transform="matrix(1,0,0,-1,206.4961,763.54617)" data-darkreader-inline-fill="" style="--darkreader-inline-fill: #f06767;"/>
      <path fill="#8a181c" d="M0 0V1.977L14.863 14.262 40.843 13.556 55.524 1.412V-.464L39.676 11.175 14.863 11Z" transform="matrix(1,0,0,-1,167.5135,774.7207)" data-darkreader-inline-fill="" style="--darkreader-inline-fill: #fc8488;"/>
      <path fill="#d42027" d="M0 0H-3.925L14.008 15.555 14.863 12.285Z" transform="matrix(1,0,0,-1,167.5135,772.7438)" data-darkreader-inline-fill="" style="--darkreader-inline-fill: #f74d54;"/>
      <path fill="#d42027" d="M0 0 3.522 1.271-14.681 16.945V12.144Z" transform="matrix(1,0,0,-1,223.037,773.3086)" data-darkreader-inline-fill="" style="--darkreader-inline-fill: #f74d54;"/>
      <path fill="#d42027" d="M0 0-26.835-.825-25.98-4.095H0Z" transform="matrix(1,0,0,-1,208.3563,756.3639)" data-darkreader-inline-fill="" style="--darkreader-inline-fill: #f74d54;"/>
      <path fill="#b42525" d="M0 0-5.83 3.364-25.042 8.449-43.546 3.505-50.231-.551C-50.231-.551-56.387 20.86-30.573 26.459-27.393 27.278-27.871 32.877-27.446 35.417-27.026 37.962-24.706 38.382-24.706 38.382-21.825 36.687-22.508 35.417-22.508 32.111-22.508 28.857-18.194 25.934-18.063 25.84H-18.057C-9.467 23.211 3.726 16.436 0 0" transform="matrix(1,0,0,-1,219.9834,755.0674)" data-darkreader-inline-fill="" style="--darkreader-inline-fill: #f06767;"/>
      <path fill="#b42525" d="M0 0H-5.445C-5.734 0-5.97 .236-5.97 .526V1.17C-5.97 1.459-5.734 1.696-5.445 1.696H0C.289 1.696 .526 1.459 .526 1.17V.526C.526 .236 .289 0 0 0" transform="matrix(1,0,0,-1,197.8002,716.6854)" data-darkreader-inline-fill="" style="--darkreader-inline-fill: #f06767;"/>
      <path fill="#b42525" d="M0 0C0-3.198-.917-5.79-2.047-5.79-3.178-5.79-4.094-3.198-4.094 0-4.094 3.197-2.047 5.789-2.047 5.789-2.047 5.789 0 3.197 0 0" transform="matrix(1,0,0,-1,196.8299,709.3251)" data-darkreader-inline-fill="" style="--darkreader-inline-fill: #f06767;"/>
      <path fill="#212222" d="M0 0 4.801 2.683 10.167 15.552-9.602 27.536-28.102 32.478-47.317 27.394-66.65 16.239-60.861 2.542-56.201 0-40.353 11.862-15.518 11.276Z" transform="matrix(1,0,0,-1,619.0436,779.09817)" data-darkreader-inline-fill="" style="--darkreader-inline-fill: #e7e3dd;"/>
      <path fill="#b42525" d="M635.521 1016.321H544.082V1083.554H635.521Z" transform="matrix(1,0,0,-1,0,1920)" data-darkreader-inline-fill="" style="--darkreader-inline-fill: #f06767;"/>
      <path fill="#fde0e0" d="M0 0V55.878H-24.466L-24.813 0H-22.695V35.532C-19.954 36.301-21.938 39.986-21.938 39.986-24.922 42.845-21.216 43.297-21.216 43.297-23.447 46.925-19.577 47.855-19.577 47.855-20.414 51.483-16.974 50.383-16.974 50.383-16.974 53.572-14.556 52.018-14.556 52.018-11.953 53.873-10.808 51.922-10.808 51.922-7.71 52.582-8.047 49.614-8.047 49.614-4.514 49.724-5.63 46.536-5.63 46.536-3.119 46.756-3.858 43.382-3.858 43.382-1.592 41.551-4.06 39.986-4.06 39.986-6.291 36.798-2.134 35.11-2.134 35.11L-2.392 0Z" transform="matrix(1,0,0,-1,602.3363,895.40737)" data-darkreader-inline-fill="" style="--darkreader-inline-fill: #ffcccc;"/>
      <path fill="#fde0e0" d="M0 0V55.878H-24.466L-24.813 0H-22.695V35.532C-19.954 36.301-21.938 39.986-21.938 39.986-24.922 42.845-21.216 43.297-21.216 43.297-23.447 46.925-19.577 47.855-19.577 47.855-20.414 51.483-16.974 50.383-16.974 50.383-16.974 53.572-14.556 52.018-14.556 52.018-11.953 53.873-10.808 51.922-10.808 51.922-7.711 52.582-8.047 49.614-8.047 49.614-4.514 49.724-5.63 46.536-5.63 46.536-3.119 46.756-3.858 43.382-3.858 43.382-1.592 41.551-4.06 39.986-4.06 39.986-6.291 36.798-2.134 35.11-2.134 35.11L-2.392 0Z" transform="matrix(1,0,0,-1,571.727,895.40737)" data-darkreader-inline-fill="" style="--darkreader-inline-fill: #ffcccc;"/>
      <path fill="#fde0e0" d="M0 0V55.878H-24.466L-24.813 0H-22.695V35.532C-19.954 36.301-21.938 39.986-21.938 39.986-24.922 42.845-21.216 43.297-21.216 43.297-23.447 46.925-19.577 47.855-19.577 47.855-20.414 51.483-16.974 50.383-16.974 50.383-16.974 53.571-14.556 52.018-14.556 52.018-11.953 53.873-10.808 51.922-10.808 51.922-7.71 52.582-8.047 49.614-8.047 49.614-4.514 49.724-5.63 46.536-5.63 46.536-3.119 46.756-3.858 43.382-3.858 43.382-1.592 41.551-4.06 39.986-4.06 39.986-6.291 36.798-2.134 35.11-2.134 35.11L-2.392 0Z" transform="matrix(1,0,0,-1,632.2823,896.2309)" data-darkreader-inline-fill="" style="--darkreader-inline-fill: #ffcccc;"/>
      <path fill="#b42525" d="M0 0 .033 45.348H-24.334L-24.779 .383H-22.661V27.372C-19.921 27.957-21.905 30.756-21.905 30.756-24.889 32.927-21.182 33.271-21.182 33.271-23.414 36.026-19.544 36.733-19.544 36.733-20.381 39.488-16.94 38.653-16.94 38.653-16.94 41.075-14.523 39.895-14.523 39.895-11.919 41.304-10.775 39.822-10.775 39.822-7.677 40.323-8.014 38.069-8.014 38.069-4.481 38.152-5.597 35.731-5.597 35.731-3.086 35.898-3.825 33.335-3.825 33.335-1.559 31.945-4.027 30.756-4.027 30.756-6.258 28.334-2.1 27.052-2.1 27.052L-2.178 0Z" transform="matrix(1,0,0,-1,603.4703,809.0685)" data-darkreader-inline-fill="" style="--darkreader-inline-fill: #f06767;"/>
      <path fill="#8a181c" d="M0 0 104.777-.809 98.264-3.902H67.947 2.878Z" transform="matrix(1,0,0,-1,538.2847,902.8695)" data-darkreader-inline-fill="" style="--darkreader-inline-fill: #fc8488;"/>
      <path fill="#ba2025" d="M0 0H95.386L88.97-7.185-3.289-6.752Z" transform="matrix(1,0,0,-1,541.1627,906.7713)" data-darkreader-inline-fill="" style="--darkreader-inline-fill: #f66166;"/>
      <path fill="#8a181c" d="M0 0 3.289 6.752 .411 10.654-2.467 2.312Z" transform="matrix(1,0,0,-1,537.8735,913.5237)" data-darkreader-inline-fill="" style="--darkreader-inline-fill: #fc8488;"/>
      <path fill="#8a181c" d="M0 0-6.512-3.093-12.929-10.277-7.252-8.026C-7.252-8.026 2.781 .188 0 0" transform="matrix(1,0,0,-1,643.0613,903.6787)" data-darkreader-inline-fill="" style="--darkreader-inline-fill: #fc8488;"/>
      <path fill="#facaca" d="M606.232 1009.636H573.561V1014.21499H606.232Z" transform="matrix(1,0,0,-1,0,1920)" data-darkreader-inline-fill="" style="--darkreader-inline-fill: #ffbebe;"/>
      <path fill="#fde0e0" d="M0 0-2.725 3.592H29.946L27.7 .122Z" transform="matrix(1,0,0,-1,576.2858,913.9559)" data-darkreader-inline-fill="" style="--darkreader-inline-fill: #ffcccc;"/>
      <path fill="#fde0e0" d="M602.336 1016.509H576.245V1025.09H602.336Z" transform="matrix(1,0,0,-1,0,1920)" data-darkreader-inline-fill="" style="--darkreader-inline-fill: #ffcccc;"/>
      <path fill="#fde0e0" d="M572.366 1016.509H546.275V1025.09H572.366Z" transform="matrix(1,0,0,-1,0,1920)" data-darkreader-inline-fill="" style="--darkreader-inline-fill: #ffcccc;"/>
      <path fill="#fde0e0" d="M632.282 1016.321H606.191V1025.09H632.282Z" transform="matrix(1,0,0,-1,0,1920)" data-darkreader-inline-fill="" style="--darkreader-inline-fill: #ffcccc;"/>
      <path fill="#8a181c" d="M529.886 1086.357H650.72799V1094.248H529.886Z" transform="matrix(1,0,0,-1,0,1920)" data-darkreader-inline-fill="" style="--darkreader-inline-fill: #fc8488;"/>
      <path fill="#ba2025" d="M0 0H15.728L24.522 17.811H-16.512L-18.09 20.065H-74.453L-73.101 17.36-114.584 17.585-107.233 .902H-92.375L-92.046 12.528H-.607Z" transform="matrix(1,0,0,-1,636.1281,848.97366)" data-darkreader-inline-fill="" style="--darkreader-inline-fill: #a7282c;"/>
      <path fill="#212222" d="M0 0H106.742C109.766 0 112.218-2.452 112.218-5.477V-9.694H-6.008V-6.008C-6.008-2.69-3.318 0 0 0" transform="matrix(1,0,0,-1,537.3828,816.0576)" data-darkreader-inline-fill="" style="--darkreader-inline-fill: #e7e3dd;"/>
      <path fill="#8a181c" d="M0 0-3.438 6.989H-110.426L-114.079 0Z" transform="matrix(1,0,0,-1,647.1212,816.0576)" data-darkreader-inline-fill="" style="--darkreader-inline-fill: #fc8488;"/>
      <path fill="#d42027" d="M0 0C0 0 2.845 11.281-9.55 12.066-9.55 12.066-9.648 13.953-12.395 14.911-13.825 15.409-16.253 15.178-19.162 15.317-24.683 15.581-25.729 15.442-27.735 15.476-30.534 15.525-33.067 14.821-32.713 12.269-32.713 12.269-41.044 12.94-41.349 3.156V0Z" transform="matrix(1,0,0,-1,611.723,828.9083)" data-darkreader-inline-fill="" style="--darkreader-inline-fill: #f74d54;"/>
      <path fill="#d42027" d="M0 0C0-.241 .194-.436 .43-.436H5.767C6.003-.436 6.198-.241 6.198 0 6.198 .236 6.003 .43 5.767 .43H4.319C4.718 .761 4.975 1.265 4.975 1.821V2.729C4.975 3.568 4.403 4.277 3.631 4.492H3.652V13.906H2.676V4.492C2.362 4.408 2.078 4.24 1.858 4.015 1.522 3.684 1.317 3.227 1.317 2.729V1.821C1.317 1.265 1.574 .761 1.973 .43H.43C.194 .43 0 .236 0 0" transform="matrix(1,0,0,-1,586.9346,812.9918)" data-darkreader-inline-fill="" style="--darkreader-inline-fill: #f74d54;"/>
      <path fill="#b42525" d="M0 0 14.863-11.638V-30.398H13.681L13.543-45.348H11.325L11.481-28.387C11.481-28.387 9.545-24.49 12.204-24.49 14.863-24.49 11.909-22.482 11.909-22.482 11.909-22.482 14.42-18.729 10.875-17.843 10.875-17.843 12.627-14.74 8.501-13.706 8.501-13.706 8.363-9.866 5.261-12.377 5.261-12.377 2.75-12.82 3.046-14.445 3.046-14.445 1.568-15.479 2.307-17.99 2.307-17.99 .83-19.32 2.455-21.388 2.455-21.388 3.636-25.081 1.421-26.41L1.568-45.348H.239Z" transform="matrix(1,0,0,-1,603.5035,763.72097)" data-darkreader-inline-fill="" style="--darkreader-inline-fill: #f06767;"/>
      <path fill="#b42525" d="M0 0-16.541-11.638V-30.398H-15.226L-15.072-45.348H-12.604L-12.777-28.387C-12.777-28.387-10.623-24.49-13.582-24.49-16.541-24.49-13.253-22.482-13.253-22.482-13.253-22.482-16.048-18.729-12.102-17.842-12.102-17.842-14.053-14.74-9.461-13.706-9.461-13.706-9.308-9.866-5.855-12.377-5.855-12.377-3.061-12.82-3.389-14.445-3.389-14.445-1.746-15.479-2.568-17.99-2.568-17.99-.924-19.32-2.732-21.388-2.732-21.388-4.047-25.081-1.581-26.41L-1.746-45.348H-.266Z" transform="matrix(1,0,0,-1,579.3838,763.54617)" data-darkreader-inline-fill="" style="--darkreader-inline-fill: #f06767;"/>
      <path fill="#8a181c" d="M0 0V1.977L-14.863 14.262-40.843 13.556-55.524 1.412V-.464L-39.676 11.175-14.863 11Z" transform="matrix(1,0,0,-1,618.3664,774.7207)" data-darkreader-inline-fill="" style="--darkreader-inline-fill: #fc8488;"/>
      <path fill="#d42027" d="M0 0H3.925L-14.008 15.555-14.863 12.285Z" transform="matrix(1,0,0,-1,618.3664,772.7438)" data-darkreader-inline-fill="" style="--darkreader-inline-fill: #f74d54;"/>
      <path fill="#d42027" d="M0 0-3.522 1.271 14.681 16.945V12.144Z" transform="matrix(1,0,0,-1,562.8428,773.3086)" data-darkreader-inline-fill="" style="--darkreader-inline-fill: #f74d54;"/>
      <path fill="#d42027" d="M0 0 26.835-.825 25.98-4.095H0Z" transform="matrix(1,0,0,-1,577.5236,756.3639)" data-darkreader-inline-fill="" style="--darkreader-inline-fill: #f74d54;"/>
      <path fill="#b42525" d="M0 0 5.83 3.364 25.042 8.449 43.546 3.505 50.231-.551C50.231-.551 56.387 20.86 30.573 26.459 27.393 27.278 27.871 32.877 27.446 35.417 27.026 37.962 24.706 38.382 24.706 38.382 21.825 36.687 22.508 35.417 22.508 32.111 22.508 28.857 18.194 25.934 18.063 25.84H18.057C9.467 23.211-3.726 16.436 0 0" transform="matrix(1,0,0,-1,565.8965,755.0674)" data-darkreader-inline-fill="" style="--darkreader-inline-fill: #f06767;"/>
      <path fill="#b42525" d="M0 0H5.445C5.734 0 5.97 .236 5.97 .526V1.17C5.97 1.459 5.734 1.696 5.445 1.696H0C-.289 1.696-.526 1.459-.526 1.17V.526C-.526 .236-.289 0 0 0" transform="matrix(1,0,0,-1,588.0798,716.6854)" data-darkreader-inline-fill="" style="--darkreader-inline-fill: #f06767;"/>
      <path fill="#b42525" d="M0 0C0-3.198 .917-5.79 2.047-5.79 3.178-5.79 4.094-3.198 4.094 0 4.094 3.197 2.047 5.789 2.047 5.789 2.047 5.789 0 3.197 0 0" transform="matrix(1,0,0,-1,589.05,709.3251)" data-darkreader-inline-fill="" style="--darkreader-inline-fill: #f06767;"/>
      <path fill="#8a181c" d="M0 0 3.148 12.835H63.82L47.851-56.956H40.466L38.269 0Z" transform="matrix(1,0,0,-1,435.5279,741.70108)" data-darkreader-inline-fill="" style="--darkreader-inline-fill: #fc8488;"/>
      <path fill="#fde0e0" d="M0 0C0 0-15.33 13.543-2.223 36.134 10.883 58.724 37.486 55.093 54.337 34.076 71.188 13.058 55.064 1.502 55.064 1.502Z" transform="matrix(1,0,0,-1,297.2016,736.15188)" data-darkreader-inline-fill="" style="--darkreader-inline-fill: #ffcccc;"/>
      <path fill="#fde0e0" d="M366.568 1190.771H339.701V1234.273H366.568Z" transform="matrix(1,0,0,-1,0,1920)" data-darkreader-inline-fill="" style="--darkreader-inline-fill: #ffcccc;"/>
      <path fill="#8a181c" d="M0 0C0 0 38.958 86.423 85.08 0L88.228 12.835C88.228 12.835 84.198 51.496 44.114 49.705 4.03 47.914-1.791 18.293-5.374 10.299Z" transform="matrix(1,0,0,-1,350.4479,741.70108)" data-darkreader-inline-fill="" style="--darkreader-inline-fill: #fc8488;"/>
      <path fill="#212222" d="M323.337 1063.595H309.898V1080.47H323.337Z" transform="matrix(1,0,0,-1,0,1920)" data-darkreader-inline-fill="" style="--darkreader-inline-fill: #e7e3dd;"/>
      <path fill="#212222" d="M473.797 1063.595H460.358V1080.47H473.797Z" transform="matrix(1,0,0,-1,0,1920)" data-darkreader-inline-fill="" style="--darkreader-inline-fill: #e7e3dd;"/>
      <path fill="#212222" d="M0 0H-6.851L-14.196 27.871 179.069 27.603 171.541 0H163.899V6.072H150.46V2.391H13.439V6.072H0Z" transform="matrix(1,0,0,-1,309.8981,845.6012)" data-darkreader-inline-fill="" style="--darkreader-inline-fill: #27292a;"/>
      <path fill="#212222" d="M0 0 26.973-.261V28.915H0Z" transform="matrix(1,0,0,-1,620.9294,1280.0381)" data-darkreader-inline-fill="" style="--darkreader-inline-fill: #e7e3dd;"/>
      <path fill="#8a181c" d="M442.633 640.322H341.624V837.11H442.633Z" transform="matrix(1,0,0,-1,0,1920)" data-darkreader-inline-fill="" style="--darkreader-inline-fill: #7f2024;"/>
      <path fill="#fde0e0" d="M0 0V48.231 64.403C0 64.403 11.262 62.078 7.966 83.002 7.966 83.002 6.867 86.78 14.559 88.524 14.559 88.524 15.108 99.276 24.173 95.789 24.173 95.789 18.679 107.123 34.337 105.089 34.337 105.089 31.985 108.966 42.088 118.216 42.088 118.216 54.196 110.029 50.722 104.507 50.722 104.507 61.806 109.738 60.982 96.08 60.982 96.08 71.97 100.439 69.497 88.524 69.497 88.524 78.205 86.49 74.538 76.028 70.871 65.566 79.386 65.545 79.112 62.359 78.837 59.172 79.118 0 79.118 0H84.88L82.957 163.501H0L-3.342 0Z" transform="matrix(1,0,0,-1,350.1536,1259.0266)" data-darkreader-inline-fill="" style="--darkreader-inline-fill: #521111;"/>
      <path fill="#212222" d="M356.427 640.324H330.259V668.87698H356.427Z" transform="matrix(1,0,0,-1,0,1920)" data-darkreader-inline-fill="" style="--darkreader-inline-fill: #e7e3dd;"/>
      <path fill="#212222" d="M0 0-6.28 5.446V-23.107L0-23.109Z" transform="matrix(1,0,0,-1,362.7071,1256.5685)" data-darkreader-inline-fill="" style="--darkreader-inline-fill: #e7e3dd;"/>
      <path fill="#212222" d="M427.832 640.324H454V668.87698H427.832Z" transform="matrix(1,0,0,-1,0,1920)" data-darkreader-inline-fill="" style="--darkreader-inline-fill: #e7e3dd;"/>
      <path fill="#212222" d="M0 0 6.28 5.446V-23.107L0-23.109Z" transform="matrix(1,0,0,-1,421.5515,1256.5685)" data-darkreader-inline-fill="" style="--darkreader-inline-fill: #e7e3dd;"/>
      <path fill="#fde0e0" d="M0 0C0 0 2.595-1.628 4.044-6.888H105.053C105.053-6.888 105.939-2.284 110.529 .258L84.962 4.147 27.181 4.118Z" transform="matrix(1,0,0,-1,337.5801,1076.0016)" data-darkreader-inline-fill="" style="--darkreader-inline-fill: #ffcccc;"/>
      <path fill="#fde0e0" d="M0 0H-62.58C-63.581 0-64.393 .812-64.393 1.813V110.98C-64.393 122.489-55.063 131.819-43.553 131.819H-18.381C-7.228 131.819 1.813 122.778 1.813 111.626V1.813C1.813 .812 1.001 0 0 0" transform="matrix(1,0,0,-1,424.0168,1052.6339)" data-darkreader-inline-fill="" style="--darkreader-inline-fill: #521111;"/>
      <path fill="#ffdeb3" d="M0 0H-50.068V81.813C-50.068 90.04-43.399 96.71-35.172 96.71H-16.135C-7.224 96.71 0 89.486 0 80.575Z" transform="matrix(1,0,0,-1,418.6814,1052.6339)" data-darkreader-inline-fill="" style="--darkreader-inline-fill: #ffe6a9;"/>
      <path fill="#fde0e0" d="M0 0 12.812 2.359V95.888H11.828C5.296 95.888 0 90.593 0 84.06Z" transform="matrix(1,0,0,-1,346.8119,1056.7642)" data-darkreader-inline-fill="" style="--darkreader-inline-fill: #ffcccc;"/>
      <path fill="#fde0e0" d="M0 0-12.812 4.051V94.512H-11.828C-5.296 94.512 0 89.216 0 82.684Z" transform="matrix(1,0,0,-1,438.6416,1055.3878)" data-darkreader-inline-fill="" style="--darkreader-inline-fill: #ffcccc;"/>
      <path fill="#fde0e0" d="M0 0-4.245-7.849-20.959-5.262-77.982-4.256-95.824-10.465-101.008-1.885-80.332 6.581-80.122 5.517-80.4 7.378H-19.007Z" transform="matrix(1,0,0,-1,442.6342,1057.0027)" data-darkreader-inline-fill="" style="--darkreader-inline-fill: #ffcccc;"/>
      <path fill="#facaca" d="M0 0 11.157 9.992 28.433 15.166 86.752 15.754 102.736 11.681 111.864 1.393C113.97-.916 109.957-2.593 107.657-1.521L86.889 2.563 29.107 2.534 5.973-.994C3.317-1.578-1.414-2.322 0 0" transform="matrix(1,0,0,-1,335.6532,1074.4181)" data-darkreader-inline-fill="" style="--darkreader-inline-fill: #ffbebe;"/>
      <path fill="#8a181c" d="M0 0C0 0 33.673 36.212 66.205-3.439V4.851C66.205 4.851 49.011 24.216 31.337 22.93 11.076 21.455 0 7.99 0 7.99Z" transform="matrix(1,0,0,-1,359.6241,967.4392)" data-darkreader-inline-fill="" style="--darkreader-inline-fill: #fc8488;"/>
      <path fill="#ba2025" d="M0 0 57.612-.093V-8.874H0Z" transform="matrix(1,0,0,-1,364.0633,1041.0906)" data-darkreader-inline-fill="" style="--darkreader-inline-fill: #f66166;"/>
      <path fill="#d42027" d="M0 0C0 0-.856 15.625 18.549 13.213V18.737C18.549 18.737 38.239 37.801 62.496 18.737V13.213C62.496 13.213 77.578 15.473 80.602 1.628L81.281-1.737C81.281-1.737 77.62 .243 74.196-1.755 74.196-1.755 53.146 17.991 38.239 14.688 23.333 11.385 17.407 11.591 7.99 1.384 7.99 1.384 4.566 2.355 0 0" transform="matrix(1,0,0,-1,351.6338,960.8331)" data-darkreader-inline-fill="" style="--darkreader-inline-fill: #f74d54;"/>
      <path fill="#8a181c" d="M0 0C0 0 4.822 25.344 12.812 13.358V21.349C12.812 21.349-2.027 25.452-3.168 0-3.168 0 0 2.051 0 0" transform="matrix(1,0,0,-1,346.8119,980.7977)" data-darkreader-inline-fill="" style="--darkreader-inline-fill: #fc8488;"/>
      <path fill="#ffdeb3" d="M0 0-4.769-3.158C-7.85-5.198-9.702-8.646-9.702-12.341V-70.365L0-66.76Z" transform="matrix(1,0,0,-1,359.6241,975.7878)" data-darkreader-inline-fill="" style="--darkreader-inline-fill: #ffe6a9;"/>
      <path fill="#ffdeb3" d="M0 0 4.034-2.536C7.252-4.559 9.204-8.093 9.202-11.893L9.182-67.884 0-64.903Z" transform="matrix(1,0,0,-1,425.8293,977.6439)" data-darkreader-inline-fill="" style="--darkreader-inline-fill: #ffe6a9;"/>
      <path fill="#ba2025" d="M0 0H-23.463L-31.798 23.928H192.433L183.859-.513 162.165 0V11.175H0Z" transform="matrix(1,0,0,-1,311.0473,880.33328)" data-darkreader-inline-fill="" style="--darkreader-inline-fill: #a7282c;"/>
      <path fill="#d42027" d="M0 0C0 0 18.073 40.502 44.103 38.359 70.134 36.216 85.08 0 85.08 0H79.744 57.317L56.795 12.472H27.098L26.612 0Z" transform="matrix(1,0,0,-1,350.4479,741.70108)" data-darkreader-inline-fill="" style="--darkreader-inline-fill: #f74d54;"/>
      <path fill="#b42525" d="M0 0-3.446 2.355-14.8 5.915-25.736 2.454-29.688-.386C-29.688-.386-33.326 14.605-18.069 18.525-16.19 19.098-16.472 23.018-16.221 24.797-15.973 26.579-14.602 26.873-14.602 26.873-12.899 25.686-13.302 24.797-13.302 22.482-13.302 20.204-10.753 18.158-10.675 18.091H-10.672C-5.595 16.251 2.202 11.507 0 0" transform="matrix(1,0,0,-1,445.4443,691.55386)" data-darkreader-inline-fill="" style="--darkreader-inline-fill: #f06767;"/>
      <path fill="#b42525" d="M0 0-3.446 2.355-14.8 5.915-25.736 2.454-29.688-.386C-29.688-.386-33.326 14.605-18.069 18.525-16.19 19.098-16.472 23.018-16.221 24.797-15.973 26.579-14.602 26.873-14.602 26.873-12.899 25.686-13.302 24.797-13.302 22.482-13.302 20.204-10.753 18.158-10.675 18.091H-10.672C-5.595 16.251 2.202 11.507 0 0" transform="matrix(1,0,0,-1,368.4245,691.55386)" data-darkreader-inline-fill="" style="--darkreader-inline-fill: #f06767;"/>
      <path fill="#b42525" d="M0 0-5.675 3.792-24.377 9.523-42.389 3.951-48.897-.621C-48.897-.621-54.889 23.512-29.761 29.823-27.645 31.424-25.727 35.848-25.313 38.711-24.905 41.58-24.05 43.262-24.05 43.262-23.224 41.218-22.459 39.803-21.91 36.194-21.358 32.568-17.816 31.088-17.688 30.982L-17.062 30.25C-8.699 27.287 3.627 18.526 0 0" transform="matrix(1,0,0,-1,416.0903,685.1062)" data-darkreader-inline-fill="" style="--darkreader-inline-fill: #f06767;"/>
      <path fill="#8a181c" d="M0 0C0 0-4.822 25.344-12.812 13.358V21.574C-12.812 21.574 0 31.573 3.168 0 3.168 0 0 2.051 0 0" transform="matrix(1,0,0,-1,438.6416,984.1624)" data-darkreader-inline-fill="" style="--darkreader-inline-fill: #fc8488;"/>
      <path fill="#8a181c" d="M0 0H-7.591L-25.997 68.901 38.74 69.791 43.11 56.956H0Z" transform="matrix(1,0,0,-1,307.3381,798.657)" data-darkreader-inline-fill="" style="--darkreader-inline-fill: #fc8488;"/>
      <path fill="#ffdeb3" d="M216.601 912.345H193.268V960.795H216.601Z" transform="matrix(1,0,0,-1,0,1920)" data-darkreader-inline-fill="" style="--darkreader-inline-fill: #ffe6a9;"/>
      <path fill="#b42525" d="M0 0 13.619-1.577V42.079L0 48.45Z" transform="matrix(1,0,0,-1,216.6005,1007.655)" data-darkreader-inline-fill="" style="--darkreader-inline-fill: #f06767;"/>
      <path fill="#b42525" d="M0 0-15.244-1.577V42.079L0 48.45Z" transform="matrix(1,0,0,-1,192.8992,1007.7586)" data-darkreader-inline-fill="" style="--darkreader-inline-fill: #f06767;"/>
      <path fill="#ffdeb3" d="M0 0V0C-2.19-.73-3.667-2.779-3.667-5.087V-38.555L3.648-33.828H7.686L7.057-4.971C6.978-1.36 3.426 1.142 0 0" transform="matrix(1,0,0,-1,184.2108,967.3885)" data-darkreader-inline-fill="" style="--darkreader-inline-fill: #ffe6a9;"/>
      <path fill="#ffdeb3" d="M0 0V0C1.915-.745 3.176-2.589 3.176-4.644V-40.523L-3.907-35.197H-6.791V-4.644C-6.791-1.138-3.267 1.272 0 0" transform="matrix(1,0,0,-1,224.0197,966.02)" data-darkreader-inline-fill="" style="--darkreader-inline-fill: #ffe6a9;"/>
      <path fill="#facaca" d="M0 0 4.01 5.565-7.082 9.974H-35.619L-49.688 3.84-47.547-1.314-33.928 4.33H-9.967Z" transform="matrix(1,0,0,-1,227.1953,1021.2082)" data-darkreader-inline-fill="" style="--darkreader-inline-fill: #ffbebe;"/>
      <path fill="#fde0e0" d="M0 0C0 0-4.282 13.177 8.475 18.785 21.988 24.726 33.082 13.813 32.793 10.349L34.621 0 29.638-.474C29.638-.474 21.15 6.272 16.973 5.339 12.796 4.405 10.029 3.866 5.677-.474 5.677-.474 2.865 .944 0 0" transform="matrix(1,0,0,-1,188.1147,956.9584)" data-darkreader-inline-fill="" style="--darkreader-inline-fill: #ffcccc;"/>
      <path fill="#8a181c" d="M0 0C0 0 3.767 7.945 15.12 9.135L15.981 13.1C15.981 13.1-2.528 15.618-3.952 0-3.952 0 0 1.259 0 0" transform="matrix(1,0,0,-1,177.2861,970.0014)" data-darkreader-inline-fill="" style="--darkreader-inline-fill: #fc8488;"/>
      <path fill="#8a181c" d="M0 0C0 0-7.433 8.38-15.981 9.688V13.1C-15.981 13.1 2.528 15.618 3.952 0 3.952 0 0 1.259 0 0" transform="matrix(1,0,0,-1,233.21,970.0014)" data-darkreader-inline-fill="" style="--darkreader-inline-fill: #fc8488;"/>
      <path fill="#fde0e0" d="M0 0C0-1.945-.182-3.522-.406-3.522-.631-3.522-.813-1.945-.813 0-.813 1.945-.631 3.522-.406 3.522-.182 3.522 0 1.945 0 0" transform="matrix(1,0,0,-1,204.8064,933.6234)" data-darkreader-inline-fill="" style="--darkreader-inline-fill: #ffcccc;"/>
      <path fill="#b42525" d="M0 0H-22.699L-23.002 13.322H0Z" transform="matrix(1,0,0,-1,215.966,1001.217)" data-darkreader-inline-fill="" style="--darkreader-inline-fill: #f06767;"/>
      <path fill="#b42525" d="M0 0-13.517-3.635V-19.76L-3.92-13.322H.304Z" transform="matrix(1,0,0,-1,192.9638,987.8951)" data-darkreader-inline-fill="" style="--darkreader-inline-fill: #f06767;"/>
      <path fill="#b42525" d="M0 0 12.089-3.192 12.074-19.965 3.512-13.527H0Z" transform="matrix(1,0,0,-1,216.6005,987.6902)" data-darkreader-inline-fill="" style="--darkreader-inline-fill: #f06767;"/>
      <path fill="#b42525" d="M0 0V44.439H-23.892L-24.23 0H-22.162V28.258C-19.486 28.87-21.423 31.801-21.423 31.801-24.337 34.074-20.717 34.434-20.717 34.434-22.897 37.319-19.117 38.059-19.117 38.059-19.935 40.944-16.575 40.07-16.575 40.07-16.575 42.605-14.214 41.37-14.214 41.37-11.672 42.845-10.554 41.294-10.554 41.294-7.529 41.818-7.858 39.458-7.858 39.458-4.408 39.545-5.498 37.01-5.498 37.01-3.046 37.184-3.768 34.501-3.768 34.501-1.554 33.046-3.964 31.801-3.964 31.801-6.144 29.265-2.083 27.923-2.083 27.923L-2.336 0Z" transform="matrix(1,0,0,-1,216.6363,1002.8688)" data-darkreader-inline-fill="" style="--darkreader-inline-fill: #f06767;"/>
      <path fill="#fde0e0" d="M0 0 10.613 6.985H41.497L51.452 1.847C52.952 1.073 53.776-.584 53.488-2.247L52.589-7.441 41.497-3.033H12.96L-1.109-9.166-1.914-4.396C-2.204-2.681-1.453-.956 0 0" transform="matrix(1,0,0,-1,178.6162,1008.2017)" data-darkreader-inline-fill="" style="--darkreader-inline-fill: #ffcccc;"/>
      <path fill="#8a181c" d="M0 0C0 0 7.741 3.152 24.822 .553V3.965C24.822 3.965 18.758 10.369 12.157 9.779 4.591 9.101 0 3.434 0 3.434Z" transform="matrix(1,0,0,-1,192.4062,960.8662)" data-darkreader-inline-fill="" style="--darkreader-inline-fill: #fc8488;"/>
      <path fill="#212222" d="M0 0 13.619 5.644H37.58L47.547 1.314 35.858-3.881H11.016Z" transform="matrix(1,0,0,-1,179.6482,1022.5222)" data-darkreader-inline-fill="" style="--darkreader-inline-fill: #e7e3dd;"/>
      <path fill="#ffdeb3" d="M579.871 912.029H603.204V960.479H579.871Z" transform="matrix(1,0,0,-1,0,1920)" data-darkreader-inline-fill="" style="--darkreader-inline-fill: #ffe6a9;"/>
      <path fill="#b42525" d="M0 0-13.619-1.577V42.079L0 48.45Z" transform="matrix(1,0,0,-1,579.8707,1007.9714)" data-darkreader-inline-fill="" style="--darkreader-inline-fill: #f06767;"/>
      <path fill="#b42525" d="M0 0 15.244-1.577V42.079L0 48.45Z" transform="matrix(1,0,0,-1,603.572,1008.075)" data-darkreader-inline-fill="" style="--darkreader-inline-fill: #f06767;"/>
      <path fill="#ffdeb3" d="M0 0V0C2.19-.73 3.667-2.779 3.667-5.087V-38.555L-3.648-33.829H-7.686L-7.057-4.971C-6.978-1.36-3.426 1.142 0 0" transform="matrix(1,0,0,-1,612.2604,967.705)" data-darkreader-inline-fill="" style="--darkreader-inline-fill: #ffe6a9;"/>
      <path fill="#ffdeb3" d="M0 0V0C-1.915-.745-3.176-2.589-3.176-4.644V-40.523L3.907-35.197H6.791V-4.644C6.791-1.138 3.267 1.272 0 0" transform="matrix(1,0,0,-1,572.4515,966.3365)" data-darkreader-inline-fill="" style="--darkreader-inline-fill: #ffe6a9;"/>
      <path fill="#facaca" d="M0 0-4.01 5.565 7.082 9.974H35.619L49.688 3.84 47.547-1.314 33.928 4.33H9.967Z" transform="matrix(1,0,0,-1,569.2759,1021.5247)" data-darkreader-inline-fill="" style="--darkreader-inline-fill: #ffbebe;"/>
      <path fill="#fde0e0" d="M0 0C0 0 4.282 13.177-8.475 18.785-21.988 24.726-33.082 13.813-32.793 10.349L-34.621 0-29.638-.474C-29.638-.474-21.15 6.272-16.973 5.339-12.796 4.405-10.029 3.866-5.677-.474-5.677-.474-2.865 .944 0 0" transform="matrix(1,0,0,-1,608.3566,957.2748)" data-darkreader-inline-fill="" style="--darkreader-inline-fill: #ffcccc;"/>
      <path fill="#8a181c" d="M0 0C0 0-3.767 7.944-15.12 9.135L-15.981 13.1C-15.981 13.1 2.528 15.618 3.952 0 3.952 0 0 1.259 0 0" transform="matrix(1,0,0,-1,619.1851,970.3178)" data-darkreader-inline-fill="" style="--darkreader-inline-fill: #fc8488;"/>
      <path fill="#8a181c" d="M0 0C0 0 7.433 8.38 15.981 9.688V13.1C15.981 13.1-2.528 15.618-3.952 0-3.952 0 0 1.259 0 0" transform="matrix(1,0,0,-1,563.2613,970.3178)" data-darkreader-inline-fill="" style="--darkreader-inline-fill: #fc8488;"/>
      <path fill="#fde0e0" d="M0 0C0-1.945 .182-3.522 .406-3.522 .631-3.522 .813-1.945 .813 0 .813 1.945 .631 3.522 .406 3.522 .182 3.522 0 1.945 0 0" transform="matrix(1,0,0,-1,591.6649,933.9398)" data-darkreader-inline-fill="" style="--darkreader-inline-fill: #ffcccc;"/>
      <path fill="#b42525" d="M0 0H22.699L23.002 13.322H0Z" transform="matrix(1,0,0,-1,580.5052,1001.5335)" data-darkreader-inline-fill="" style="--darkreader-inline-fill: #f06767;"/>
      <path fill="#b42525" d="M0 0 13.517-3.635V-19.76L3.92-13.322H-.304Z" transform="matrix(1,0,0,-1,603.5075,988.2115)" data-darkreader-inline-fill="" style="--darkreader-inline-fill: #f06767;"/>
      <path fill="#b42525" d="M0 0-12.089-3.192-12.074-19.965-3.512-13.527H0Z" transform="matrix(1,0,0,-1,579.8707,988.0067)" data-darkreader-inline-fill="" style="--darkreader-inline-fill: #f06767;"/>
      <path fill="#b42525" d="M0 0V44.439H23.892L24.23 0H22.162V28.258C19.486 28.87 21.423 31.801 21.423 31.801 24.337 34.074 20.717 34.434 20.717 34.434 22.897 37.319 19.117 38.059 19.117 38.059 19.935 40.944 16.575 40.07 16.575 40.07 16.575 42.605 14.214 41.37 14.214 41.37 11.672 42.845 10.554 41.294 10.554 41.294 7.529 41.818 7.858 39.458 7.858 39.458 4.408 39.545 5.498 37.01 5.498 37.01 3.046 37.185 3.768 34.501 3.768 34.501 1.554 33.046 3.964 31.801 3.964 31.801 6.144 29.265 2.083 27.923 2.083 27.923L2.336 0Z" transform="matrix(1,0,0,-1,579.835,1003.1853)" data-darkreader-inline-fill="" style="--darkreader-inline-fill: #f06767;"/>
      <path fill="#fde0e0" d="M0 0-10.613 6.985H-41.497L-51.452 1.847C-52.952 1.073-53.776-.584-53.488-2.247L-52.589-7.441-41.497-3.033H-12.96L1.109-9.166 1.914-4.396C2.204-2.681 1.453-.956 0 0" transform="matrix(1,0,0,-1,617.855,1008.5181)" data-darkreader-inline-fill="" style="--darkreader-inline-fill: #ffcccc;"/>
      <path fill="#8a181c" d="M0 0C0 0-7.74 3.152-24.822 .553V3.965C-24.822 3.965-18.758 10.369-12.157 9.779-4.591 9.101 0 3.434 0 3.434Z" transform="matrix(1,0,0,-1,604.065,961.1827)" data-darkreader-inline-fill="" style="--darkreader-inline-fill: #fc8488;"/>
      <path fill="#212222" d="M0 0-13.619 5.644H-37.58L-47.547 1.314-35.858-3.881H-11.016Z" transform="matrix(1,0,0,-1,616.8231,1022.8386)" data-darkreader-inline-fill="" style="--darkreader-inline-fill: #e7e3dd;"/>
      <path fill="#212222" d="M163.317 640.322H136.344V668.877H163.317Z" transform="matrix(1,0,0,-1,0,1920)" data-darkreader-inline-fill="" style="--darkreader-inline-fill: #e7e3dd;"/>
      <path fill="#ba2025" d="M0 0 9.702 5.062V-5.184L0-9.235Z" transform="matrix(1,0,0,-1,349.9216,1046.1531)" data-darkreader-inline-fill="" style="--darkreader-inline-fill: #f66166;"/>
      <path fill="#ba2025" d="M0 0 9.002-4.134 8.938-12.626-.18-8.802Z" transform="matrix(1,0,0,-1,426.0095,1041.3936)" data-darkreader-inline-fill="" style="--darkreader-inline-fill: #f66166;"/>
      <path fill="#fde0e0" d="M0 0H-50.967V207.083C-50.967 215.806-43.896 222.877-35.173 222.877H-15.794C-7.071 222.877 0 215.806 0 207.083Z" transform="matrix(1,0,0,-1,125.2299,1121.2139)" data-darkreader-inline-fill="" style="--darkreader-inline-fill: #521111;"/>
      <path fill="#b42525" d="M0 0 .165 32.254C.165 32.254 4.962 38.055-.083 41.006-.083 41.006-2.563 46.611 1.922 46.758 1.922 46.758-.083 52.412 5.788 51.921 5.788 51.921 4.217 58.509 9.675 56.936 9.675 56.936 9.344 62.049 13.231 58.411 13.231 58.411 16.042 61.852 16.704 57.427 16.704 57.427 20.508 59.301 20.508 54.871 20.508 54.871 23.814 56.667 22.658 51.626 22.658 51.626 28.694 51.822 25.717 45.726 25.717 45.726 31.754 44.841 26.958 40.219 26.958 40.219 22.823 36.384 27.536 32.647L27.838-.494H31.506V50.347C34.565 78.281 14.223 66.799 14.223 66.799H13.571C3.848 67.388-5.249 72.551-3.724 50.237V-.59Z" transform="matrix(1,0,0,-1,85.3121,1108.6109)" data-darkreader-inline-fill="" style="--darkreader-inline-fill: #f06767;"/>
      <path fill="#b42525" d="M122.358 877.965H77.135V942.356H122.358Z" transform="matrix(1,0,0,-1,0,1920)" data-darkreader-inline-fill="" style="--darkreader-inline-fill: #f06767;"/>
      <path fill="#b42525" d="M114.646 812.758H83.379009V819.08H114.646Z" transform="matrix(1,0,0,-1,0,1920)" data-darkreader-inline-fill="" style="--darkreader-inline-fill: #f06767;"/>
      <path fill="#8a181c" d="M116.107 805.971H81.533008V813.879H116.107Z" transform="matrix(1,0,0,-1,0,1920)" data-darkreader-inline-fill="" style="--darkreader-inline-fill: #fc8488;"/>
      <path fill="#d42027" d="M0 0 6.739-8.615 5.834-65.47H2.172L1.915-3.476Z" transform="matrix(1,0,0,-1,114.6461,1042.6771)" data-darkreader-inline-fill="" style="--darkreader-inline-fill: #f74d54;"/>
      <path fill="#8a181c" d="M0 0 5.278-2.027V-9.436L0-7.908Z" transform="matrix(1,0,0,-1,116.1067,1106.1205)" data-darkreader-inline-fill="" style="--darkreader-inline-fill: #fc8488;"/>
      <path fill="#d42027" d="M117.131 803.68H80.843V805.972H117.131Z" transform="matrix(1,0,0,-1,0,1920)" data-darkreader-inline-fill="" style="--darkreader-inline-fill: #f74d54;"/>
      <path fill="#d42027" d="M0 0-5.278 1.528V-.764L0-2.397Z" transform="matrix(1,0,0,-1,121.385,1115.5569)" data-darkreader-inline-fill="" style="--darkreader-inline-fill: #f74d54;"/>
      <path fill="#212222" d="M0 0H58.988L65.01-10.225 51.802-10.795V-8.615L46.236-2.13 12.973-2.796 12.865-11.342H7.551Z" transform="matrix(1,0,0,-1,69.5835,1042.6771)" data-darkreader-inline-fill="" style="--darkreader-inline-fill: #e7e3dd;"/>
      <path fill="#8a181c" d="M0 0-.684 3.203H59.809L65.275-5.671 65.01-10.225 58.988 0Z" transform="matrix(1,0,0,-1,69.5835,1042.6771)" data-darkreader-inline-fill="" style="--darkreader-inline-fill: #fc8488;"/>
      <path fill="#8a181c" d="M0 0 53.178 .097C53.841 .098 54.263-.613 53.943-1.195L49.143-9.923H3.919L-.921-1.604C-1.334-.894-.823-.001 0 0" transform="matrix(1,0,0,-1,73.2151,970.8751)" data-darkreader-inline-fill="" style="--darkreader-inline-fill: #fc8488;"/>
      <path fill="#b42525" d="M0 0C0 0 15.779 9.531 31.982 0L32.406-8.575 0-8.684Z" transform="matrix(1,0,0,-1,83.5868,880.21646)" data-darkreader-inline-fill="" style="--darkreader-inline-fill: #f06767;"/>
      <path fill="#8a181c" d="M0 0V10.474C0 10.474 21.279 23.151 40.977 9.231V-.104C40.977-.104 19.917 18.857 0 0" transform="matrix(1,0,0,-1,79.4641,900.579)" data-darkreader-inline-fill="" style="--darkreader-inline-fill: #fc8488;"/>
      <path fill="#b42525" d="M0 0H4.763L4.978 35.355C4.978 35.355 11.118 41.6 4.661 44.776 4.661 44.776 1.485 50.81 7.227 50.968 7.227 50.968 4.661 57.055 12.176 56.526 12.176 56.526 10.165 63.618 17.151 61.924 17.151 61.924 16.728 67.429 21.703 63.512 21.703 63.512 25.302 67.217 26.149 62.453 26.149 62.453 31.018 64.47 31.018 59.701 31.018 59.701 35.25 61.635 33.77 56.208 33.77 56.208 41.498 56.42 37.687 49.857 37.687 49.857 45.414 48.904 39.275 43.929 39.275 43.929 33.982 39.801 40.016 35.778L40.402 .103H45.097V54.832C46.049 70.816 34.466 71.957 22.973 72.542H22.139C9.693 73.175-1.055 70.71 0 54.713Z" transform="matrix(1,0,0,-1,77.2063,970.8785)" data-darkreader-inline-fill="" style="--darkreader-inline-fill: #f06767;"/>
      <path fill="#212222" d="M0 0C0 0-30.5 39.396-62.694-.635V-6.99C-62.694-6.99-32.406 29.758 0-6.142Z" transform="matrix(1,0,0,-1,130.819,908.7041)" data-darkreader-inline-fill="" style="--darkreader-inline-fill: #e7e3dd;"/>
      <path fill="#fde0e0" d="M0 0 .056 13.277C.056 13.277 1.71 13.186 .321 14.327 .321 14.327-.321 14.823 .781 15.047 .781 15.047 .321 16.255 1.883 16.176 1.883 16.176 1.189 17.317 3.387 17.278 3.387 17.278 3.178 18.34 5.105 18.104 5.105 18.104 5.817 18.802 7.437 18.138 7.437 18.138 8.942 18.694 8.942 17.553 8.942 17.553 11.082 17.947 10.562 16.648 10.562 16.648 12.702 16.57 11.314 15.271 11.314 15.271 13.639 14.878 11.782 13.855 11.782 13.855 10.111 12.527 11.817 12.251L12.086-.192H13.816L13.516 18.891H-1.762V.004Z" transform="matrix(1,0,0,-1,92.9118,1021.6846)" data-darkreader-inline-fill="" style="--darkreader-inline-fill: #ffcccc;"/>
      <path fill="#8a181c" d="M107.048 896.83H90.779V899.81H107.048Z" transform="matrix(1,0,0,-1,0,1920)" data-darkreader-inline-fill="" style="--darkreader-inline-fill: #fc8488;"/>
      <path fill="#8a181c" d="M0 0C0 0 10.591 14.819 21.181-.644Z" transform="matrix(1,0,0,-1,88.6851,1002.7131)" data-darkreader-inline-fill="" style="--darkreader-inline-fill: #fc8488;"/>
      <path fill="#fde0e0" d="M0 0C0 0 10.002 12.966 21.181-.322V-4.349C21.181-4.349 10.953 10.55 0-3.705Z" transform="matrix(1,0,0,-1,88.6851,999.0084)" data-darkreader-inline-fill="" style="--darkreader-inline-fill: #ffcccc;"/>
      <path fill="#fde0e0" d="M0 0H50.967V207.083C50.967 215.806 43.896 222.877 35.173 222.877H15.794C7.071 222.877 0 215.806 0 207.083Z" transform="matrix(1,0,0,-1,656.7764,1121.2139)" data-darkreader-inline-fill="" style="--darkreader-inline-fill: #521111;"/>
      <path fill="#b42525" d="M0 0-.165 32.254C-.165 32.254-4.962 38.055 .083 41.006 .083 41.006 2.563 46.611-1.922 46.758-1.922 46.758 .083 52.412-5.788 51.921-5.788 51.921-4.217 58.509-9.675 56.936-9.675 56.936-9.344 62.049-13.231 58.411-13.231 58.411-16.042 61.852-16.704 57.427-16.704 57.427-20.508 59.301-20.508 54.871-20.508 54.871-23.814 56.667-22.658 51.626-22.658 51.626-28.694 51.822-25.717 45.726-25.717 45.726-31.754 44.841-26.958 40.219-26.958 40.219-22.823 36.384-27.536 32.647L-27.838-.494H-31.506V50.347C-34.565 78.281-14.223 66.799-14.223 66.799H-13.571C-3.848 67.388 5.249 72.551 3.724 50.237V-.59Z" transform="matrix(1,0,0,-1,696.6943,1108.6109)" data-darkreader-inline-fill="" style="--darkreader-inline-fill: #f06767;"/>
      <path fill="#b42525" d="M659.648 877.965H704.87106V942.356H659.648Z" transform="matrix(1,0,0,-1,0,1920)" data-darkreader-inline-fill="" style="--darkreader-inline-fill: #f06767;"/>
      <path fill="#b42525" d="M667.36 812.758H698.627V819.08H667.36Z" transform="matrix(1,0,0,-1,0,1920)" data-darkreader-inline-fill="" style="--darkreader-inline-fill: #f06767;"/>
      <path fill="#8a181c" d="M665.9 805.971H700.474V813.879H665.9Z" transform="matrix(1,0,0,-1,0,1920)" data-darkreader-inline-fill="" style="--darkreader-inline-fill: #fc8488;"/>
      <path fill="#d42027" d="M0 0-6.739-8.615-5.834-65.47H-2.172L-1.914-3.476Z" transform="matrix(1,0,0,-1,667.3602,1042.6771)" data-darkreader-inline-fill="" style="--darkreader-inline-fill: #f74d54;"/>
      <path fill="#8a181c" d="M0 0-5.278-2.027V-9.436L0-7.908Z" transform="matrix(1,0,0,-1,665.8997,1106.1205)" data-darkreader-inline-fill="" style="--darkreader-inline-fill: #fc8488;"/>
      <path fill="#d42027" d="M664.875 803.68H701.163V805.972H664.875Z" transform="matrix(1,0,0,-1,0,1920)" data-darkreader-inline-fill="" style="--darkreader-inline-fill: #f74d54;"/>
      <path fill="#d42027" d="M0 0 5.278 1.528V-.764L0-2.397Z" transform="matrix(1,0,0,-1,660.6214,1115.5569)" data-darkreader-inline-fill="" style="--darkreader-inline-fill: #f74d54;"/>
      <path fill="#212222" d="M0 0H-58.988L-65.01-10.225-51.802-10.795V-8.615L-46.236-2.13-12.973-2.796-12.865-11.342H-7.551Z" transform="matrix(1,0,0,-1,712.4229,1042.6771)" data-darkreader-inline-fill="" style="--darkreader-inline-fill: #e7e3dd;"/>
      <path fill="#8a181c" d="M0 0 .684 3.203H-59.809L-65.275-5.671-65.01-10.225-58.988 0Z" transform="matrix(1,0,0,-1,712.4229,1042.6771)" data-darkreader-inline-fill="" style="--darkreader-inline-fill: #fc8488;"/>
      <path fill="#8a181c" d="M0 0-53.178 .097C-53.841 .098-54.263-.613-53.943-1.195L-49.143-9.923H-3.919L.921-1.604C1.334-.894 .823-.001 0 0" transform="matrix(1,0,0,-1,708.7913,970.8751)" data-darkreader-inline-fill="" style="--darkreader-inline-fill: #fc8488;"/>
      <path fill="#b42525" d="M0 0C0 0-15.779 9.531-31.982 0L-32.406-8.575 0-8.684Z" transform="matrix(1,0,0,-1,698.4196,880.21646)" data-darkreader-inline-fill="" style="--darkreader-inline-fill: #f06767;"/>
      <path fill="#8a181c" d="M0 0V10.474C0 10.474-21.279 23.151-40.977 9.231V-.104C-40.977-.104-19.917 18.857 0 0" transform="matrix(1,0,0,-1,702.5423,900.579)" data-darkreader-inline-fill="" style="--darkreader-inline-fill: #fc8488;"/>
      <path fill="#b42525" d="M0 0H-4.763L-4.978 35.355C-4.978 35.355-11.118 41.6-4.661 44.776-4.661 44.776-1.485 50.81-7.227 50.968-7.227 50.968-4.661 57.055-12.176 56.526-12.176 56.526-10.165 63.618-17.151 61.924-17.151 61.924-16.728 67.429-21.703 63.512-21.703 63.512-25.302 67.217-26.149 62.453-26.149 62.453-31.018 64.47-31.018 59.701-31.018 59.701-35.25 61.635-33.77 56.208-33.77 56.208-41.498 56.42-37.687 49.857-37.687 49.857-45.414 48.904-39.275 43.929-39.275 43.929-33.982 39.801-40.016 35.778L-40.402 .103H-45.097V54.832C-46.049 70.816-34.466 71.957-22.973 72.542H-22.139C-9.693 73.175 1.055 70.71 0 54.713Z" transform="matrix(1,0,0,-1,704.8001,970.8785)" data-darkreader-inline-fill="" style="--darkreader-inline-fill: #f06767;"/>
      <path fill="#212222" d="M0 0C0 0 30.5 39.396 62.694-.635V-6.99C62.694-6.99 32.406 29.758 0-6.142Z" transform="matrix(1,0,0,-1,651.1874,908.7041)" data-darkreader-inline-fill="" style="--darkreader-inline-fill: #e7e3dd;"/>
      <path fill="#fde0e0" d="M0 0-.056 13.277C-.056 13.277-1.71 13.186-.321 14.327-.321 14.327 .321 14.823-.781 15.047-.781 15.047-.321 16.255-1.883 16.176-1.883 16.176-1.189 17.317-3.387 17.278-3.387 17.278-3.178 18.34-5.105 18.104-5.105 18.104-5.817 18.802-7.437 18.138-7.437 18.138-8.942 18.694-8.942 17.553-8.942 17.553-11.082 17.947-10.562 16.648-10.562 16.648-12.702 16.57-11.314 15.271-11.314 15.271-13.639 14.878-11.782 13.855-11.782 13.855-10.111 12.527-11.817 12.251L-12.086-.192H-13.816L-13.516 18.891H1.762V.004Z" transform="matrix(1,0,0,-1,689.0946,1021.6846)" data-darkreader-inline-fill="" style="--darkreader-inline-fill: #ffcccc;"/>
      <path fill="#8a181c" d="M674.959 896.83H691.227V899.81H674.959Z" transform="matrix(1,0,0,-1,0,1920)" data-darkreader-inline-fill="" style="--darkreader-inline-fill: #fc8488;"/>
      <path fill="#8a181c" d="M0 0C0 0-10.591 14.819-21.181-.644Z" transform="matrix(1,0,0,-1,693.3213,1002.7131)" data-darkreader-inline-fill="" style="--darkreader-inline-fill: #fc8488;"/>
      <path fill="#fde0e0" d="M0 0C0 0-10.002 12.966-21.181-.322V-4.349C-21.181-4.349-10.953 10.55 0-3.705Z" transform="matrix(1,0,0,-1,693.3213,999.0084)" data-darkreader-inline-fill="" style="--darkreader-inline-fill: #ffcccc;"/>
      <path fill="#8a181c" d="M256.371 744.823H261.04V800.58H256.371Z" transform="matrix(1,0,0,-1,0,1920)" data-darkreader-inline-fill="" style="--darkreader-inline-fill: #fc8488;"/>
      <path fill="#8a181c" d="M344.736 744.282H338.512V799.045H344.736Z" transform="matrix(1,0,0,-1,0,1920)" data-darkreader-inline-fill="" style="--darkreader-inline-fill: #fc8488;"/>
      <path fill="#8a181c" d="M445.595 740.085H440.91603V796.64907H445.595Z" transform="matrix(1,0,0,-1,0,1920)" data-darkreader-inline-fill="" style="--darkreader-inline-fill: #fc8488;"/>
      <path fill="#8a181c" d="M528.769 736.817H523.511V798.292H528.769Z" transform="matrix(1,0,0,-1,0,1920)" data-darkreader-inline-fill="" style="--darkreader-inline-fill: #fc8488;"/>
      <path fill="#fde0e0" d="M0 0C0-6.995-1.686-12.665-3.765-12.665-5.845-12.665-7.531-6.995-7.531 0-7.531 6.995-5.845 12.666-3.765 12.666-1.686 12.666 0 6.995 0 0" transform="matrix(1,0,0,-1,321.7077,681.2859)" data-darkreader-inline-fill="" style="--darkreader-inline-fill: #ffcccc;"/>
      <path fill="#fde0e0" d="M0 0C0-6.995-1.686-12.665-3.765-12.665-5.845-12.665-7.531-6.995-7.531 0-7.531 6.995-5.845 12.666-3.765 12.666-1.686 12.666 0 6.995 0 0" transform="matrix(1,0,0,-1,467.4381,681.2859)" data-darkreader-inline-fill="" style="--darkreader-inline-fill: #ffcccc;"/>
    </g>
    <text font-family="NirmalaUI" font-size="276.193" transform="matrix(1 0 -0 1 0 1920)" xml:space="preserve" fill="#212222" data-darkreader-inline-fill="" style="--darkreader-inline-fill: #e7e3dd;"><tspan x="1559.5" y="-848.8437"></tspan></text>
    <text font-family="Modern" font-size="261.2114" transform="matrix(1 0 -0 1 0 1920)" xml:space="preserve" fill="#b42525" data-darkreader-inline-fill="" style="--darkreader-inline-fill: #f06767;"><tspan x="745.7603 940.88528 1135.4878 1331.6576" y="-903.5205">RANG</tspan></text>
    <text font-family="Modern" font-size="308.3727" transform="matrix(1 0 -0 1 0 1920)" xml:space="preserve" fill="#231f20" data-darkreader-inline-fill="" style="--darkreader-inline-fill: #e7e3de;"><tspan x="723.311 865.7792 1078.2479 1240.452 1428.5593 1641.6449" y="-661.2744">VASTRA</tspan></text>
  </g>
</svg>