<svg width="25" height="24" viewBox="0 0 25 24" fill="none" xmlns="http://www.w3.org/2000/svg">
<path d="M7.5 8.5L10.442 10.2394C12.1572 11.2535 12.8428 11.2535 14.558 10.2394L17.5 8.5" stroke="#424242" stroke-width="1.5" stroke-linecap="round" stroke-linejoin="round"/>
<path d="M2.51577 13.4756C2.58114 16.5411 2.61383 18.0739 3.74496 19.2093C4.87609 20.3448 6.45034 20.3843 9.59884 20.4634C11.5393 20.5122 13.4607 20.5122 15.4012 20.4634C18.5497 20.3843 20.1239 20.3448 21.255 19.2093C22.3862 18.0739 22.4189 16.5411 22.4842 13.4756C22.5053 12.4899 22.5053 11.51 22.4842 10.5244C22.4189 7.45886 22.3862 5.92609 21.255 4.79066C20.1239 3.65523 18.5497 3.61568 15.4012 3.53657C13.4607 3.48781 11.5393 3.48781 9.59882 3.53656C6.45034 3.61566 4.87609 3.65521 3.74496 4.79065C2.61383 5.92608 2.58114 7.45885 2.51577 10.5243C2.49474 11.51 2.49474 12.4899 2.51577 13.4756Z" stroke="#424242" stroke-width="1.5" stroke-linejoin="round"/>
</svg>
