<svg width="35" height="35" viewBox="0 0 35 35" fill="none" xmlns="http://www.w3.org/2000/svg">
<path d="M0.5 17.5C0.5 8.11116 8.11116 0.5 17.5 0.5C26.8888 0.5 34.5 8.11116 34.5 17.5C34.5 26.8888 26.8888 34.5 17.5 34.5C8.11116 34.5 0.5 26.8888 0.5 17.5Z" fill="#424242"/>
<g clip-path="url(#clip0_256_1393)">
<path d="M17.5 12.5C14.7383 12.5 12.5 14.7383 12.5 17.5C12.5 19.6191 13.8184 21.4277 15.6777 22.1562C15.6348 21.7598 15.5938 21.1543 15.6953 20.7227C15.7871 20.332 16.2813 18.2383 16.2813 18.2383C16.2813 18.2383 16.1309 17.9395 16.1309 17.4961C16.1309 16.8008 16.5332 16.2813 17.0352 16.2813C17.4609 16.2813 17.668 16.6016 17.668 16.9863C17.668 17.416 17.3945 18.0566 17.2539 18.6504C17.1367 19.1484 17.5039 19.5547 17.9941 19.5547C18.8828 19.5547 19.5664 18.6172 19.5664 17.2656C19.5664 16.0684 18.707 15.2305 17.4785 15.2305C16.0566 15.2305 15.2207 16.2969 15.2207 17.4004C15.2207 17.8301 15.3867 18.291 15.5937 18.541C15.6348 18.5898 15.6406 18.6348 15.6289 18.6836C15.5918 18.8418 15.5059 19.1816 15.4902 19.25C15.4688 19.3418 15.418 19.3613 15.3223 19.3164C14.6973 19.0254 14.3066 18.1133 14.3066 17.3789C14.3066 15.8008 15.4531 14.3535 17.6094 14.3535C19.3438 14.3535 20.6914 15.5898 20.6914 17.2422C20.6914 18.9648 19.6055 20.3516 18.0977 20.3516C17.5918 20.3516 17.1152 20.0879 16.9512 19.7773C16.9512 19.7773 16.7012 20.7324 16.6406 20.9668C16.5273 21.4004 16.2227 21.9453 16.0195 22.2773C16.4883 22.4219 16.9844 22.5 17.5 22.5C20.2617 22.5 22.5 20.2617 22.5 17.5C22.5 14.7383 20.2617 12.5 17.5 12.5Z" fill="white"/>
</g>
<defs>
<clipPath id="clip0_256_1393">
<rect width="10" height="10" fill="white" transform="translate(12.5 12.5)"/>
</clipPath>
</defs>
</svg>
