<svg width="35" height="35" viewBox="0 0 35 35" fill="none" xmlns="http://www.w3.org/2000/svg">
<path d="M0.5 17.5C0.5 8.11116 8.11116 0.5 17.5 0.5C26.8888 0.5 34.5 8.11116 34.5 17.5C34.5 26.8888 26.8888 34.5 17.5 34.5C8.11116 34.5 0.5 26.8888 0.5 17.5Z" fill="#424242"/>
<g clip-path="url(#clip0_256_1397)">
<path d="M20.136 13.2935H21.5416L18.4708 16.8032L22.0834 21.5793H19.2548L17.0393 18.6826L14.5042 21.5793H13.0978L16.3823 17.8252L12.9167 13.2935H15.8172L17.8198 15.9411L20.136 13.2935ZM19.6427 20.7379H20.4216L15.394 14.0906H14.5582L19.6427 20.7379Z" fill="white"/>
</g>
<defs>
<clipPath id="clip0_256_1397">
<rect width="10" height="10" fill="white" transform="translate(12.5 12.5)"/>
</clipPath>
</defs>
</svg>
