<svg width="35" height="35" viewBox="0 0 35 35" fill="none" xmlns="http://www.w3.org/2000/svg">
<path d="M0.5 17.5C0.5 8.11116 8.11116 0.5 17.5 0.5C26.8888 0.5 34.5 8.11116 34.5 17.5C34.5 26.8888 26.8888 34.5 17.5 34.5C8.11116 34.5 0.5 26.8888 0.5 17.5Z" fill="#424242"/>
<g clip-path="url(#clip0_256_1395)">
<path d="M22.4004 15.5C22.4004 15.5 22.3027 14.8105 22.002 14.5078C21.6211 14.1094 21.1953 14.1074 21 14.084C19.6016 13.9824 17.502 13.9824 17.502 13.9824H17.498C17.498 13.9824 15.3984 13.9824 14 14.084C13.8047 14.1074 13.3789 14.1094 12.998 14.5078C12.6973 14.8105 12.6016 15.5 12.6016 15.5C12.6016 15.5 12.5 16.3105 12.5 17.1191V17.877C12.5 18.6855 12.5996 19.4961 12.5996 19.4961C12.5996 19.4961 12.6973 20.1855 12.9961 20.4883C13.377 20.8867 13.877 20.873 14.0996 20.916C14.9004 20.9922 17.5 21.0156 17.5 21.0156C17.5 21.0156 19.6016 21.0117 21 20.9121C21.1953 20.8887 21.6211 20.8867 22.002 20.4883C22.3027 20.1855 22.4004 19.4961 22.4004 19.4961C22.4004 19.4961 22.5 18.6875 22.5 17.877V17.1191C22.5 16.3105 22.4004 15.5 22.4004 15.5ZM16.4668 18.7969V15.9863L19.168 17.3965L16.4668 18.7969Z" fill="white"/>
</g>
<defs>
<clipPath id="clip0_256_1395">
<rect width="10" height="10" fill="white" transform="translate(12.5 12.5)"/>
</clipPath>
</defs>
</svg>
